<mxfile host="app.diagrams.net" modified="2024-07-09T08:40:46.734Z" agent="Mozilla/5.0 (Windows NT 10.0; Win64; x64) AppleWebKit/537.36 (KHTML, like Gecko) Chrome/126.0.0.0 Safari/537.36" etag="GMw5HByJ4mn3e2461CPc" version="24.6.4" type="device">
  <diagram id="C5RBs43oDa-KdzZeNtuy" name="Page-1">
    <mxGraphModel dx="1434" dy="738" grid="1" gridSize="10" guides="1" tooltips="1" connect="1" arrows="1" fold="1" page="1" pageScale="1" pageWidth="827" pageHeight="1169" math="0" shadow="0">
      <root>
        <mxCell id="WIyWlLk6GJQsqaUBKTNV-0" />
        <mxCell id="WIyWlLk6GJQsqaUBKTNV-1" parent="WIyWlLk6GJQsqaUBKTNV-0" />
        <mxCell id="WIyWlLk6GJQsqaUBKTNV-3" value="CSV" style="rounded=1;whiteSpace=wrap;html=1;fontSize=12;glass=0;strokeWidth=1;shadow=0;fillColor=#d5e8d4;strokeColor=#82b366;" parent="WIyWlLk6GJQsqaUBKTNV-1" vertex="1">
          <mxGeometry x="30" y="120" width="110" height="110" as="geometry" />
        </mxCell>
        <mxCell id="oaHKMSnmFTuaICTkoKeT-2" value="Embedding Model&lt;div style=&quot;font-size: 11px;&quot;&gt;(OpenAIEmbeddings)&lt;/div&gt;" style="rounded=1;whiteSpace=wrap;html=1;fontSize=11;glass=0;strokeWidth=1;shadow=0;fillColor=#60a917;strokeColor=#2D7600;fontColor=#ffffff;" parent="WIyWlLk6GJQsqaUBKTNV-1" vertex="1">
          <mxGeometry x="220" y="120" width="110" height="110" as="geometry" />
        </mxCell>
        <mxCell id="oaHKMSnmFTuaICTkoKeT-3" value="Vector Database&lt;br&gt;(Chormadb)" style="rounded=1;whiteSpace=wrap;html=1;fontSize=11;glass=0;strokeWidth=1;shadow=0;fillColor=#f8cecc;strokeColor=#b85450;" parent="WIyWlLk6GJQsqaUBKTNV-1" vertex="1">
          <mxGeometry x="400" y="120" width="110" height="110" as="geometry" />
        </mxCell>
        <mxCell id="oaHKMSnmFTuaICTkoKeT-4" value="" style="shape=image;verticalLabelPosition=bottom;labelBackgroundColor=default;verticalAlign=top;aspect=fixed;imageAspect=0;image=data:image/png,iVBORw0KGgoAAAANSUhEUgAAAHMAAABVCAYAAAB6ttvNAAAAAXNSR0IArs4c6QAAAARnQU1BAACxjwv8YQUAAAAJcEhZcwAADsMAAA7DAcdvqGQAAAmGSURBVHhe7Z1/jBTlGce/O7f3i/vB9erJwdWWEzxMCmoFW2tBrlhtMT1BIo0iaqIxktikFZtGmpq2JFVsLW00tGpyEVLbf2gasCZFIz+M6GlLFQnQohiD5x3I/eDYvb273dub7fPMvEPX697uvrMz8+7NzicZduZd7m52PvO87/O+O/NOaHR0NIUAX6CJ1wAfEMj0EYFMHxHI9BGBTB8RyPQRgUwfEcj0EYFMHxHI9BGBTB8RyPQRgUwfEcj0EUX7FdiZQR095zQMxXQMnk8ilvjfeVdToaNxZhgNNRpaPqejudGFc3LwLC29QP8AMBalJQbMGQO+GKY3KykM6oGyRqDiEqC8xfwZxRSNzCOnUnjzBPD2RykcPaOhL06HLM1RRdp6Qjdf4+K1jo7vkhYdX2sN4Zp5ISyeZ5ZLcfIwcOwQLUeAbtqRSMQsr6g2X8dpB26mP3jtSXM7Ha0BCC8EqpcCVVfT2XateMNblMpkgbsOhfD348DpUVNKVZn5Xlgi2JJC6tgEEE0CTRQ4y+cmcXd7Ga74Ush8MxMs8OA+OoNeNuWxuKpyOioV4j+kkaDfs2IYWHYemMj0OxOAPmSustyq79IHusVTsUpk7j2i46mXEnhvuOqCQBl5ubDkcnTPJj8b2xNYuyxN0Ft7gV3PUgR2A/VUXWaSN5mcMifDcj8gsV8GGjfT37lZlLuHpzJfO5rC/S+FEKJjUk8B4KTAbAyS1FQtsH/xQbS8uAUYHqEqsUa8myfSMi1ExGoXuy7VE5mczGzaSQfzlGZEipdwy3cNBvFE32bMSlC1qtWZb8hiW6aFkFpB7WoTSa2cL8qdw/XY2Pl6Asu3akZSo0LkptgebP/k25g1/m/7Ih2BqnKOzuRRoGcRMPB7Ue4crkbmj3Yk8ZcTYSUSqSXEjshmtEX+Rl2IZqO8IAqOzEno1PXhKJ3TSZKdOUCuRGacMspVj43h5Q/ViJxfNoZX+u9CW/SAMyLdwIrSj5dRt6dHFBaG4zK5fWx/HOgdr0ItJTleYrWPu7tXoS5BZ74mmeR4DmfR1Jb2rKQIyNB/lcRRmSzyxt9pRtfAq0zVworI7b13mAX5dDeKArGfPSsKjlDHDjlXrdc/pzneZ8wXbiNf+PR+c2PaiLTg5KjBjNAJapNt4thh39Cpo5K6bypEDlB1vqvvh6iL05k97URaiP3uXWu+2sCRQ//MKym82a153kYyXL0+d+6Pog9Z7G1kLkjo+H+ovfqJ2JajYJk8vrrlQAiNlaLAQ1jkLePvo33oKfokKvuQDsJZ7shvgdhboiB/Cu5ntm0BZsbVVK9M1+kOseYyTvczc8H90LknSG7+fbuCFGzfmwSPs6oQyVH5YGwPfeioWeA3OCEaeFps5IdtDZy9Pr4/rKR6Zbgbsv7co/QJfFK9/h/UfkZ/JpXd2pb5/L7UZ74w9hKOyofO76RGYronPDnQLgP6nhAbubGlg6Oysyt04YtkFfgq6ZkSis6RF/KOTlsyDx7XjS9+VbWVD8X2+z8q04nuEivZsaVj2z7z0gxVdIzsJpkKd8BLOBGK/klsZEdaJlexx/o1ZV0RTnxmxd8gmdN1pEcWMZCQx0C8tBKuYlXBVWxHpKu0qliL0UNiZWqkZb7xgaYsi2W+OvEe/atwB1TAVe3I62JjaqSPyuFuXckYrEVr4l+016UWmVTVJlyQ+c5ZdVExTidRXbxbbJUYfNlmju87pcycOjsh1tRww2gvkIqJrVKjiaIz+4ksJbM/qm6UgJOfVm2wNJMfi4ns49BSMvkmnvT7P7xm9vAnYq1E0QfESmYUqgmQJy5eMyMlc/B80lxRREjhWLByuHuSAymZfE9kgCKsO8yyICUzrIUu3BNZklR4fsPcZ9Eoo82ClMzaag8ulyhmZibEiiqyj9ZIyeRbzgMUUtkqVjIjJZPnDuCbY0uWFkoAvbiYKyN91M45WM0yPHeAdWdySVFNH7pOYTZfvgwomyk2MiMtkyeB4LkDSgr+vAuy9/Hchdrq8iVifWqkZV63wJwEoqTgqvVShTK5WzJjqdiYGmmZPHsHXzJSclXtXJKprL0kar4hVqZGWibTsdCcpqUk4M85j6o5Ze0l/e2qjpztJWNL5uolqdKpajkarxwRGwrgKrZ2tdjIji2ZXNVefXGJZLWcxS6KKapiOfG5HKi/UWxnx5ZM5gffChnXzvoavlno64qjsu5esZEb2zKXLyyB6OSovC6iLvHhb0oabhcbubEtk/n5rT6OTo7KlSSyTNHgOt/S1/gbsZEfBcnktvO2BUkMj4sCv8AZbDN9KJVtJc8RlGdbaVGQTOaXd4aVXnrpCixw3aC66pXbytl/EBv5U7DMyjDw7N0pY4pRX8DV6xpOPBT1vfRjwEWdefUrJ1OwTIar21+vTEx/oSzyKvoQqqpXbifrfiFdvVo4IpPh+Vw3LEka04FOS1gkj/SsUlS9ssgZ64GmH4sCeRyTyTyyJoyOy5LTL0ItkXf0qxPJCU/zY6LAHo7KZJ68J2xE6LQRmi5SBSySx16/8GdRYB/HZTIcoY+0m0lRUQ8qWG3k+j5R4DFGG/l9YM42UVAYrshkNtwUwo51KUSou1Z0QrkfySI5a1XSRlJNwCIveqagNnIyrslkeMjvtY06FjbrxROlLLGJuh0bP1WTtbJEfmzGJV2UtTo7X7urMhm+COz5BzR03q4bt87zaJESqaMkjieA+g4tD3D1RkI9FSmisfFXZvvowoNtXJdpccMVGg5sAh5enjS+2PasC8MSeVm9Dti2G/jmWpJIZ9S4R+0kC2SRNdTt4OnTJAbOZVHyXBOe5OLFrgS2Hqgwql++fDPXkCDf0seT568f2kKnYI75f1hegn9xNUm8D7hpDf1M2hx0Or0XIbFDT5oH27iPw8kJLzgKqT02vvV4mPZjta0RHVmUyEzHemzU1ndCSJAxvmWQ50yY/OShKWUayQzJY1hg4+eBxSuApbTMv8oszwbP4hH5KzD2qjmrByMll8QxLI/hWSlrvgfMuJ5evX2MlHKZ6fCd2SfPhPDPkzr+8bGG01HNaGOtZ3/9NL4Hd0UepQKSWUmF5bXA7EsptZ8LXH4l0LaIZNLBtAvfZj56nAS/S8thatzfp0IRZZOxhIfbaF/opKn8Ci2ttDj/vJJ8KSqZmeAqmTkX0TEjFUV9SDS2DSTUoUdIZIWr5BQLHRYFhEYnEc9D5MXfl6DoZQbkj2fZbID7BDJ9RCDTRwQyfUQg00cEMn0D8F+mNR3wqyq14gAAAABJRU5ErkJggg==;" parent="WIyWlLk6GJQsqaUBKTNV-1" vertex="1">
          <mxGeometry x="418.75" y="90" width="72.5" height="53.59" as="geometry" />
        </mxCell>
        <mxCell id="oaHKMSnmFTuaICTkoKeT-6" value="" style="shape=image;verticalLabelPosition=bottom;labelBackgroundColor=default;verticalAlign=top;aspect=fixed;imageAspect=0;image=data:image/png,iVBORw0KGgoAAAANSUhEUgAAAJ8AAACUCAYAAACN3PsjAAAAAXNSR0IArs4c6QAAAARnQU1BAACxjwv8YQUAAAAJcEhZcwAADsMAAA7DAcdvqGQAAChlSURBVHhe7V0HfFVF9j6QAoSQ0AOETugghIQWQHroCKgIgoAiCrKu6P7c3f+6NlZX110LgoIFuwgqIL2FFkKX3qT3XkJIQoBA8j/feW/Cy8u9rySPd1/C/cIlL+/eOzN35rtnzpk5c6bQuevXMuvNfJ9MmPA2Clt/mzDhdZjkM2EYTPKZMAwm+UwYBpN8JgyDST4ThsEknwnDYJLPhGEwyWfCMJjkM2EYTPKZMAwm+UwYBpN8JgyDST4ThsEknwnDYJLPhGEwyWfCMJjkM2EYTPKZMAwm+UwYBpN8JgyDST4ThsEknw0yMzOtn+5C6zsTnoG5bpehCFaIf8oXC6aaJUpRxaAQKhlYlEoXCeLfxaiInz9dS79BKek36UJaKh1LSaQz16/RqdQkSs+4wzfjbhPu4L4lnyJcMSZVleIlqWX5qjSkViQ1KhVGxf0DmUsWKuE69dkW+P5Wxm0mYDJ9d2grLTtzkI5dS6TUO7cIKZtEdI77knwgTtrtdBpQvTG9HRVLYSztivkFZJFMi2xaUATO5J9bLP2u3EyjSfvW05R9G+Q7E45x35BPSbCihf3p2Xot6bEaTSgipAz5FS5MhV0kmzMgD1DuOHfJc47vpfd2rabrt2/JOVcJfT/hviFfYe4Im5etTP+M7ESty1UTwt0LQtyVhkzC5ET6vy2LKY675NsZGSYB7VDgyQcy+BUqTO+16ElDajalQD8/MSy8QQTkfTszg2Yd201PJ/wq5TAJeBcFfqilAutzMzoOoadqR4vFWtgBAaTbVJLL+tmVQw/Ix5/ze7TGA7SixzNUO6SsRSSaEBRYyQdS1AktR1+2fZgal6og3zkinfzm49KNVNqfdJGOst52IS2ZTqRcpcRbN5hEhSi8eAgbJyWoZEAxqh1alhqULE/BNpaxs/RPpF6loaum067Ec3KtfI9b+JflCsufd/9jPdXyR4FEgSQfGrViUAna1OdPFBxQRL7TIoYiBbD36nn6eM86mnZ4OxshlmsdkQl3FuEuvG/VBvTXxu3ZeGGpxsAdjvLC2GD03Il0485tCizsR9WCS1KpwCAq7h8gkvkqW8xJ6TfoKhP+PJP/dgbygurAaVoJq1eu/IYCRz40TmhgUZrV+QlqVibcIREy+PeGiyfog93xlHD+ON1kQrjbsEgrgEnUslwV7tqbU9/qDUi0Sp10cH0iE+xa+k0qWzRI7hXjh3/AeZRJHWl30ulw8mU6woZLwvmjFHf6kJA3K+V8TsICR74A1rFmdBpKHSrUkL+1SJDBlufptGv04e419NWB3+WavEgUdS8U6MG1IukvjdpR9eBSuukp8itoXWd7DT7hb1jMc0/tpWmHttH2K2eFxLktsy+gQJEPDfRWdDcaU6+1EMG+YXAeEgW6V6t5n9AtlnR8kfWsZ4Bxw8BCfvRLpyHUulxVKsx/ewqKkCDh5VvXacy62bTm3NF8O4xTcKxdbhgYAM/UaaFLPByzj++hDgs/ky7W08RD+uhy/9eilxg5niYE0sMRwLpmWNFgmt7hcbGio8qyesHnLZpo/kGBIR+U9zciY2VoQ6vRIfHmndxHf94wR/QtTxIDpIPVO6puC9re7wUaVLMJlbAaOvcKKD+euRGTfHbnYfT3Jh0pyC8wX9GvQJAPjf9QtUbUqWLNHKTCORDv4LXLTLy5rMSzxPMQkDZmTh4oU1Ek0HvNe1KFYiWyZk8cERz32h8op/13jiB58G8Q/eVGD9Ki2CcpxL+I5T4n9/oCCoTOh8qO6zGKojSsWxgXJ68nUe9l39DJlKsOCeEqkF8Gy5j6oeXpvy16sqVbVaSQM7LZIp3LdfFGCutsx2j31XPy+frtdCZSUYoIKS1TgA1KhQmxbFPVywPp4+cQv2RDV8+gA0kXPfKs9xL5nnyo9MgylWhh7FNU1M8/W4WrBvnb5kU09cBm/pQ3COn4gBfMmPqtaUitplSuaHEmh3MpB1y6mUpLTx2kdReO0+ZLp+gwEwW+gJCUyrkBVyKPO5kZkjaGi/B8farWZ502TMb7MEujB+R1NPkKPRE/g/YmngdbrWd8D/mbfGhUrtxpHQZTt/DaORoFDQEPkwcXTKFkq3dJXhDAefWt2pD+FRVL5Vnhd+acIOTn4+KNVJp/ah+9u2MVXUhLEYvYnRcBWdxIT6dhtaNoXKN2Mk2nnlQrfyEgP3ePJVMlP18lYL4kH6oS3VYJVvI7VqxF37UfKMSzb4jbLFWGrJpOS08fyH0DcEMi3WYsff7bvBc1ZAU/gMnjlHTyO4M+P7CJPt69ls4zCTLzyAGkiWfuW60BG1ddqExgkJTDviyW/DNp++WzNHDlD3TpxnWH5TUK+Yp8GM+Ci3uLslWoF3dDLcpWFnd3QKsBTqYmUZv5n1JKLqUe0qhfsrxYsZA6kDaOulhcD6DLXHH2sPjzbb54yiKlPNn4nE3DUuXp/Ra9qXm5KvIyahKQjy+Y/H9ntcOj+XsIPk8+VCBckaoUD6XR9VrTExFNKYjffjSzVqUrwNAYv2M5fbQ7QfcaLSgClSxSjHpVricWbDH/AId5qXugq8G4eXXLEvrt+B7ylwFm1/N2C5xXicCi9FvnYfRA6Qqa7looF16Ewaum0bLTh9yqB2/AZ8mnGhTztHjDu1euI6RzRAIF3IuJe0zgYy7UFUhufB9+P8R63f9a9qSyRWBMWOCMeLBU39m5kqYe3ExprJ8B97qxkTfmhie1fogeqdFYhn3s88RLeCj5MrWbP4VuZt65V69CrpBdQ/cRoFIxdDG0ViTF9xpND1dvJIt6nCn4tjiZepXOcLfrEji/QswhOAdAknzedgCVY+I5Gq9DGXFcv5NO3x3aQh0WfUaT9q6jG7ctzgmuljMvQB6wll/etIDWnz8hL456GRQwvVerRBm2zlsJEX0JPkc+VF5IYBH6b4teNKFVX6pavGSuGnN34nnucrI3hD2kofjAcsl3m/egWUy8DhVrUhEXxuzQ6BgueXTFDzRuw3wZX/MG4eyBPJPTb9ILG+eIVa0FvETPN4iR5/Ql+Bb5uFFLs661rPsokXruSDp7nEhJ5Hutf+gAJOoaXpvW9h5Lo+o0527dsoJNL09cDx0KvnaPr/qJei/7mtadP84MsF7gIoT0DI9Rlct7NDmR+iz9xjJnbQc8Tymu1xFsNGVw+X0FPkM+NAjmKZd0e5pqczfhiHhCAu5C8Fs1pC0w+4DhBUfNi/tgyU6JGUBluGGckQ6NhuWWb25bTm3nT6a4M4dkuEfvHkfAsz1esyn9pdGDMj6J/jKvREQtnEhNpIPJlzTrhJ+OBlRrJJ98BT5DvjohZWlKmwGsn5TWJYKFBJmUxJJn+pEdsjxRE5mFJLqAo2pG8wys+YBEJXBGPJBuNuf14MLPaMKeBDqTds1t0iEdOD30qVKfNvX9E33MKsX/NelIP7QfTD91HCxTg1qkcQc3Mm7T2HVzKPX2Lc206oaWk6lAX4Hx5OM6wvqIb9oPFJcoLSKgIlVlfn9oK0XN+ZieWz9b5kS1gMFcWLvOgFkKLYaq/DJZsh24dol6cvf6ZPzPrNddEqnlLvDCVA0uRUu7j6RvHhwoBoBaL4zpstjwOrSg21M0td0jFOQXYL3LfUC67U48RyvOHM5BPtQp8oPLv/05o2Ao+VAJQQEBNL3jEJmkB7SIB5y+fo2GrJ5OL26cR1dupXFFoujaRMC3ziTT3bPa+SEGy4ub5lOnhZ/T9stnpOGcpWkPkA4ezRNa9WFpN5aalq6Uo2yKFPDARre45aE/07gGbWQ9B0riLlFw9ezju3XLWql4CS6De89xr2C45HuYKxxTZIB9haHicaw8e5jaLZhMC0/+IZXrKWjlB1+/b1m6tl8wRX5jKAXX6TWmFjCkgfFJGE2LWaINj4hiC9ri9KCXjvoeTguvRXahNT2fpc5cL0JCNwm4+PQBMYq07oO0h9HkCzCMfKiY8KBQeiOyaw5pAOA8qm7thWNiWaIy3SFAboAcY+Z9QuOs0tUdSHmtR5sK1Smh12jR69DYinS21+Cwh7oOB1bD/cw9wvSOj1Pl4qHWK1zD9fRbtPXSaetf2YGIW/CW8QUYRj7Q6J3o7iIhUNm2kMbhn+VnDopjgCv6m6cAY0brZXAI5hGursc6K1bN/dJpqLxY0OtUOopsiN0CPRLSR4+EAO5Dd9y+Qg1axVLw31HdhDR612cD3xd//iiKlQ1IEzrm03VbuJbOPYYh5AOx4PHbJswSM0UL8MgA8Tzt8u5poGSViofQK00709JuI6kDd5UwGmzLjIZGFKs1TIhBLMXRpb++LU5i/IECjglYmMoUCaJn6rakJZz+4JpNqYTyVtYBct555SwStnxhB8zk+AIMIV8AZ/s1W30Y+LQHKhWzB29tX8EN5rurslBOzKX2qdpAhk5ebNROvI5tDRNcAwmHmYeh8dOpz7JvKeH8MbrJz/fp3vWygu6bQ1tkKMchmYSEhcR4+aT1Q7Suz3MyMoDFSnpA5IV0Hd0OUtkX6tXr5MMjVy9RiqLKVubPdxvKFu/sXEWrzh3mc9YvfAR3CZJJ7SvWpNW9npVwHJB0qEhb0qlrX92yVPTIZacOZpfy/BHS8K+bFtKDC6dIcEl139187gJpCwm5Kw8PCpFZoJ9YHwwNZClovcYWWHAOFzR7IA14fGPM0Wh4vQSokLasx9g2lgIq/VxaMv14eJtmhRoNlKleaDn6LOZhWbbYsGRY1mo5HIo4kNwzju4UX8JP962ny2y82D+rAhxeMS8MFWPEmp9p79ULDrtiAGlhKrBLpQja9tAL9M8mnWSw3PYevNiWEmeHo3S9Da+TD75xzzdoo6nroVq+OrBZvH59BYpQiFwK9/k4ljiP1mictV7EnlRYkN5z6dc0eu0s2pd00fqtPlQaICxmbDou/IzGsz6ohkr0yKLyhfWKCAkJPUdTbOU6YlAA8Aqy+BPmBBwRkJ/R8Cr5UJGRpStqhpLAOViakBR6Roi3oUoBJX9Nr9E0tl5rp84HaPR6JctZJc9dkjiDShN62oQ9a6k9k/Drg1uka8a8shYJ1T04KhUPpR/bD6LfOg+XKTSoAv6F/KxXZgfmf30BXpd8jZh8Wp4VqNwVZw9RSnreF/rkGVwWUKZ1+WoyzjaxdV+qWaJ0NmMCYLlk/WQBzsGKn9CyL/3aeagMk8jVGsRxCL4J/ogvbJhDA1f+KE4McA/DmhA9IG+oADFh1ejXTkPpzaiu/J31pB12XdGelvQ2vEo+TDc1Kmlx+bYHKm/tuWPcwF5/H3IAg7r/ad6T5nUdQd3C0ZVl1+vwHPBcPpR0mVL5ZcHfSjLhGpAUszbwD/wkpp/M62pJLmdAvojFMnDFj/TMull0KPlKljePFlTewQGB1Kp81Szpq6DKvuqsbxhzXm1pPG/dUEscOy2gcu3qy8soJG5OK3s+K5FMURRFOgCNhx84GAxc8QO1WfApDVj+Hf0hRkJOAuKugdUfoJU9nqE3I7tScTedBpCOotnsY7tlnvk/u1YJ8aUs1vzsYcn/7gC3LRLZ+Nkisx+GVrTAq+TDiD+GWewrBZUIBXhPorHdAUo1rlFbGdS1n53AcTr1Gr2+NY6Ngs9lvA7+fBsvnqTOi7+gV35fQkf45bElBe5HOhjPfL5hG1rWYxQ9Ur0RV/pdy9gVqHJgFd57O1fLOuRfj+3KGh90NR3gbFoyFbYGvzQaXpd8egF0MCiq5wbuLaCR1QGohoV1GM8qQcv5k2jivnVZzgYAfmP6b/L+jTJzsfT0QZmVsSWFpMm/MUzzRdtHaG3vMeLICmvUHeIASAsBI0eu+YX6xH0jMWgQdNyVdHCvLCL3AakHeJV8xfwDZbWVFs7dSOEq8Y1KUcRBc/6RdJFaz0P3+q1M2OuVEN+nMikHr/pJ/A0hEXG/SksIyAcAp87l3UfRl0xE5bWCw1UgHT+uR3Sf8PYZFj9DCG+re2ohKx838rqX8Cr5MBCqN4wCyWc091TjoBERaGfwymkUu/hL8VwWO1On7LbgFOjyzeuiCz7GeuGeq+ezSCENzwB5gtgo6Gv1ah7XsJ2sznMXSAdDMYtPHeCueDL9cGibDOKrfLQAa3hIrWayWs9oeJV84p2i89AS2kvvpBeBl+A/u1ZTF9bjMOWV22gHCMUWx1Zl7KIvaPz2OM2Bc0yVYXXeq0070cJuT1HXShES1dQRefRwIiWJXtwwV/b7wCyRVhogKwbLP2rVRxaaGw2vkg+6Er+X1r/uAhVVJbik4W8jyoEpsf/uXMWkY2Xe+n1ecJ1J+PGetSKZIKXsAUKgN0AkU6znmBc7wjIIz+fcIiHfkMHH3BP76GGWuHiJ9AiIWRCsl4GDq5HwruTjBk1l3cQeqBBYmCHcLRsKbjwMY3CBrF/kHXg2pJeGxeTW7+yhCIgARNFlK0ugyXeie4ivo1sEBDgThEbrG/ctnbmexF2+9sA0Il2NYwvc7fQ9CK+SD+5F4sNm98CofExLNSwVZv2m4MFepUAd2C//RD2AoBiaeaZuC/q97/P0VJ1o2aPDXey7eoEt4pkygqBV3yD70IhICg1w7Bt4L+FV8kHxPppy1fpXdqBC8DYaVA+GAGN1/9sdL/59ioRCQD6AskWLS5yadb3HigcNqsYVoqg0YHEjUpaeFVypWAi93izWpTTvBbxKPoy6Y6cfPb0Pu0JCRrgMvUrj77Xy8DXAieCtbctlfPAXJiIGrRVRFIFwIEIXHBu+bPOwDNM4CwOSBebwdwe3yIIipGsLlfagGg9QuJtrRDwFL5OvkCxD1NJ9UBEIXaE3DmgPVCUMGC0gLeyBgX3SfB5cVuz19vSaX+ixlT/S5ksnrZ4sd8mC5wEGVG9Iy1kffIF1tRCdwXp73OZ03t6+XBaU20s4pAs9E46xRgQR8ir5gE3cFUD51qoIeIRgKaUrQgvNsYTfaDRUjrT4GBbRjHb2H0c9K9cV686FJA0Dnh2Dxpjw77LwS/rLxvniXmbrSoVr0HNA/3ujaRf6nKWgq9jDBghmXuzrCfDnfAfXaCL5exteJx82tZvyx4Yc3QCAb/7WpAO/1a4NuGIudfS6WZYhHE7PtqHgEQIjBlEAsPCmZdkqPjGw6hBcbn+/wvTjke3Uau4k+nDP2hyhLyxELSxezAOrN3bppSrE17+xdRnrltovfeuwauKD6G14nXyYVJ93Yh9XWs5qg8SqyvpHf5Z+Wm+pFn47vlccL+ed2Jvl7QGgUnFgLCuyTDj91uUJ+rRNP4ooUcbltI3EhRspNJ4J8xZ3mVrlhQpT10XCoF4RGH2Hjh8fegaEGvY2vE4+4OC1S4QoUlpvIbqWf0XHUkRIGeu3zoEtBYbF/0x9476RqS01xYTDkiYWzQTQY9y9rOr1LL0a2UU8kn0aXGaU/crNNMrk31rwK+Ro/Vp2oA7mnNhj/SsnGpUKk6Efb8Lr5EOFoisZmfCL7pLB4v5F6O3o7nRTQzfUAxoBE+1Nf/tIgvpgoh1Q9yNfAO7liIWS0HsMtQ2r7nLjGQV4rOjBnbIjFb0oBkxzquXGy+4pGCL5QAR4Le+6ej5H94tzqNTOFSPo49Z9xTXcFQLKfULsdNljDT5vH+xeIxECcD8OdQ2kQI3g0jKv6uuA3uqJFwRpYIBfRUqwBeqkGtcFdElvwhDyAXjg8VvjsulpCjgHPQQW6+j6rWT4xRUCKuB+rCJ7e8dK6rr4Kwk0pIYvbEmoDlsgF3fycgWSnl0+rkLLMMstzqWl0LVbFl9De2As0dtreQ0jHxpj/cXjbPlu1GxwkAKke71pZ/p3dDf+xv1GgFTdl3SeBq2cJn52WB+LwWd9chWisfVbW5ZFekTeIEW2YPk5noiIlBfKXcjCIetnTwA7E9m/cADKGBx4b3fKtIdx5GPgrf5k3zrxeQO0CIhKwfbxP3ccSrWhl+SiJTCTsPLMIeqy6HN6k6XtaeuEe478+MDWoQtin6I+VerlWepkZGRSz8p1aF7X4fR2VHcxptyFLEq3fvYETjuI0F8ywLuOHYaSD+TCVu29ln6lu18GroGO1iW8Nq3p9RwNqtVERvdBHH0JpgFO4xrrfx/vXUvtF2BoZp+uuzs22vv6wUdpdqeh1KhkmHznal5yHf+rG1KWfuo4iL5r/5iso0UaWhLHOTwr+TCjoYdbd7y7kNxQ8gFokOT0WzQfgR91GlgRMJArbmKrvrS420hqXLqinHOVFIAiAIZjnkr4lWIXf0E7rpyVxkU6OFRe+OlQKYKWdn9a9lzDUI26RgvqHFQFbKuwvOcz1L1yPUlH0uMjN9AL9pNbVC9RWvcZEm8hiLr3YDj5ADQL9lRz1kA4j24YC3GWMSm+aveoDBE4IoUWkA661P1Jl6j7kqn03LpZdIA/a5EQ+t+TdaJpR/8XaAT/DraTuuozPISH1IqkXf1folF1m1uCB/H96pls73EHjiSVu0BKMCy06hmjAjfvN8kHQDpUdnPYAxu19K/WkOJ7jqY/1Y8R9yN3gUaAa//0IztlewPon5CKioTqGjQVIox+wBJwXpfhEmELQyAgMMjRlKXwXNbrIJXDimXffxfp4DrM1bpPPUvdOH4lXQfqCC+TFq7ctMwlexM+Qb4M/qkWXMr6l3MIIayNi5mKN6NiaUOfsdS3agNLABw3JIxK6zaX4fWty6jxzA/EYSEHAa1HU9YH58eOkD1+4d6E6PILWQ2AB7LtdYBIO/69+twRipkzMVfBeaCH5Ya0WsD8rd4GgXB1K/AzHFpoX7GWZXjDrlIAaUAdMqmGxhAG3PA/i+kvTgTR5So7DCuhB1wN16Phq3+W3YV+v3w6x1QdjqKF/akT64PxPZ+lHqzXFbOWHYekw9ci/x2J56hf3Lc0aMU0SmYJm/PpnMNTA78oWxNEw7eW0RYo75Hky7jI+o13YDj5IBuiy4RrNgwq5X+74mnV2SMsARxPtaFSsQYWfnxzOg+X2ZFqWJRkPe8yOJ30zDuykV6PJV/RSxvnyfgg8lb5Iy/RB1nqZtPr+Ad+cUdSrtA/tiymrou+oDUSiZTLzj+5AQZaPEEJ7CnSLby2Zh3iG+i8eBZvwnjJx0+OCFBalQLpge0PsAZ2ePzPlHzb8cJoIQVLCsQAHBYRRQm9n5NYgLlqd24HBG787tBW2VFy2pEdusmgPNCXICWx5SmGcj77Y2NWN6slbVzFHRkWzxuQO8KUtNCJxYzyIfyHt2E4+fDgehZYOlc9wrui8kHCJrMn0Ls7Vor/HhrcEQmRWrB/oGwHv6InYqQ0tpx0ESptBPtG1Pz+1RrkkEC2ZcBQESTdy5sWUkq6JYi51jPlBnlNBS/sy43bs3GUU7VB+TH9iD15PVVeV2E4+aCvBftrT+vcyUAAIVaC+RpItES2RLEgBtGa5pzYayGmtfHtYdv42PnnszYDaGrbR2SdiC1ptIBzWEH2dJ3mtIat6SdqNWPDJruDq6TBPztZrxuZ8CvriTNo+5Wz2fL1BMSxwvo5N8BjPlCqguxupFUqOBr8cnSnENTbMJx8eGgo+VqweCOjiJaKUQ2LfSxGcDfcP+578Q20BE7UJpS6B/oMhmYWxj5Jb0V1EyvZ/h75zEdM+WoU32uMbHFfmg0ZlQYOXIMywy3sjW1xssh81rHd8oLgvKeBrju3qVqeL4P+0aST6MP25cN5uGyt5S7X8yV3Dh8gH9G1m9pbNWEMDUq91quPitx48QR1WvQ5vbRpnuzNBkmklY4C7gGhx9RrRev7jKVRdVtYnQgsDYGoATM6DqGZnZ+gykEhIm1Vg+E8jIkbLG2/ObiFYuZ9ShP3rJMZjXtBOgXMB+s/kXNgw5fO4RGaZYRO/cneDXQyNemePoMeDCcfFlYcT9X2tIClB2NED7gHkUG/P8hGwcLP6MsDm2WQWMtpQAH3QArCl+/d6B7iRNChQg16LbKzTNthbYT9sA/SggUczxKiX9x3YgGfvJ7EiVkvuIeAN19us2lerjL9vUkHTVcpPBMCIL2/a5U3HkMThpMPVZtw4bj1r+wAARCW1iH4GtAMsUn+tnkRRf42gfWw85pxURSQriJhszKVWNINk0hR6IrtpR0s2AucNrYq6B/3LW26dCrrvDvILYUw+O2u5EO5sYEgYr+UKVI8R3lxHqrDdNb1EEuGL7Ce8S6Ml3yMpacOyjQXKsUemMrCvKnWOVuoCkZUqW6Lv6CHl38vkUTRVeJerftxjzqyjdfxtWgc6Fuvbl1CLedOpGWnD7rdSJInH5iKe61ZZ+ny3UVuDIHW5atKKF7s1aY1dodyYa3whN0J1m+MgU+QL50NjvNpyda/sgPdY+1Q99YX3LqTIeNWLedNote2LRN9ENAioC1wHgf0ummHt1EMGxOT922QPTHcBfRPkO6xmk3YeBnNlnMLTSI4Q4CLi4RQbowc9GOjCluLYQ201n24DgbauA1zxZlAvXBGwCfIl8nVBCllD1QMQsd2r1zX+o2L4PrEvRhvm7R3nRglGE5Q0hWHPfAdLD+Md/Vb/h39af0cOpx8RdJRhytAOriyQWh5Wtx9JH0a00+28AdcTcMWILFD4Fn4gFU+JWYAfdFmAIUVDZZT9vmhbJDmiBe4+dJpZynfc/gI+TJlX109YIwKb7W7laVIgzjEo9fNFvep+HNH5ZwiIQ50zdDrxqydLWFmN13MnV6HtDAeOLH1Q7Sk29MUKTuLa5MXzyLzz06eShb8WD/bA+fgZ/hK007SzT5cHfVk0Vlz5Gd91vkn99FEfiHVC2okCp27fi2z3sz3rX8aBzgGIERsqcBi2SoFFQal/6VN8+n7Q1vzXGGwZPtVbUjDazej6sGlJdj3zOO76duDW8SbGqm7nQeXEbEFn63XSkKalWddS5FOC0J4Pl7ZsoSm7N8oeWoB1w2vHUUftuzNXXZ2OYFzGOOEJat2dHKW34yjO+gF7m4Rv8UX4DPkgxSY2u5R2SrAvhJReViN1m7+ZEpmPSWvQOqwhkF46D1oDOThLulwD/S69mHV6c2obuJiZWu46OEO530kJZF6L/1aJK4ekP6LbIW/Gtk5h76IcwqO8sN16Gox/Yf94PDc7j7nvYJPdLsAXId+OaY/zYNB39ebdZVxr7y+t7gfEgNrOJQUcKdB0KDoqrGdAba5mtZxCNV3Qjx1D/zzFrPl3H3xVKcbHKJLrl5C2zMH+ahDDxbiZdCEvWvpmbUzfYp4gM+QD4jjRtlw4UQOAqLC0O08GRFFParUQ61az+QeuW0ENGgVtsDfiu4m6zvahtUQowjBePTSxD3AugvHaXj8DBq88kcZDHdaBr7N0SC7HhTRsVPSGNZ1/7VtuVi4vkQ8wGe6XQCV1qxMOC2IfVLTuRTnscg8dsmXEvbLm5UJ+iCEbLfwuqKDwW0LuTsqgyLdqdQk2VH8/V2r+XrX33ekvHfASxJn0NmzqrwA1BG21B+VMJOl+w1Ox7kqYAR8SvKhgrZdOSMRpzTX1fJ5zEL81GEwlWGlXs7bXeNJIH111A0pQ6t6PkuTY/pZZkK4LHoNqu6BnTr5jw3UYu4kJl48X+96deP+ykElZT9dR1B5qc8IG4ftuIas+kn0Y/QYvkg8wKckH4AKxDjV3K4jZJE4prvsgW75IutLz7PltvT0AYtO5OEKVg2KIOV/e6ADxYbXkUVLjhpSEQHLHRewgg/C/XHtoq4e6xB8DwwweOLY56nKhv+RNgbosWfIT4d30LbLp31Ot9ODz5FPwBXak3W7qW0fpSJ+2g2OBsAwybs7V8kwyfU7sII9VOGcdll+AUbUjqKx9WMoJLCIpOyMeBikPsqS57Wty+SlyAXlslCRu9qNfceKr6N9viAc8kGUV0z7YZ9irI4DkGd+IB7gk+Rj+SFRRJ+s05z+E93DotDrEBCKNLqa4fHTae/VC3nSbzgXSmMdaTjnOz4qlsoEWnz5AL00UQaQAY6tWP32w+FtDp0aXMXI2tGy56/WAiLM1DSc+QElpiPGoaUM+YVwtvBNyWdFAOsrCOQ4tl4rqVytCkbF422Ha9WGiyfoe1bssQsPrsT1IIbefZImf8YgdoViwbI4HMsvsSUDFqc7mouVfPkA0SbuXUs/Ht4u0khLTXAHSLNByTC2pEfKfmz2ZYcuPPmPjfSPzYvynJfR8GnyAZB6CFeBcGmKUPZAgyngE+LQLTq5X/bv3c8618mUJFl8hAFlTD9hCgwDzLVKlKY6oeXECwSBIjE/ivv18lFQ+WGLAWxthSEUdbWj+1wCp/0+W9MjIqKZXDnTSr51k1rN+0SCHeU5L4Ph8+QDUMWvNOlE4xq2lW4Ije8KORRgAGAGxTLWZVk3Am8RLcnmSrqXb1ynP2+cK0aFyB4H97gKlfbjEZE0qWVfKYd9WTB2t/DUftkN05914fyOfCG30XX+e+dK+vOGOZatURn2BLOFajh1YAoM43LBAYHSlWEyHiS2vw6HPZCPOjBm9ua2ZRQ9b6KQQMircU9ugPSxHek7Ud01y4LzmI35cE+CxxaSG4188RRoCBAQa2exUcrqc0dlDE2R4l5BpZ3CXTa2qoqZP5k+4m726s20rG7WE4Ae16BUGH3Sup+Ef9N6CfD8iCWzJZee1L6IfPcKIeg33NnHb1sukdq1Ygx7EvB0eWT5DzIpj8CKWlIpT+CiNy9blX7rMizLO8UW6gWDYfPF/o3WbwsG8h35pHH4QJBHeCr/la0+eLwgugB0Ik8TsTh31S3ZIPFkqlJG/od1c2Pqt6JZnYdKFCwt4gFYpjlg+fd09nqyZ4lvMPKFweEQ3D5Bfv7UMTxCts5qVjZcGlLWqeL83f+yukppUhuS6jWoanx4hmAgd/z25XTg6kXKU9woThNTXli49FKjdrLfnHIAtQfyhzsUdj7/cNcaytQuZr5F/icfQ5EE/3MnJaFsW5WrSkMjmlHl4qFi3aLBLd7QGBS2eAFjsHbDheNUKShE4pg4IgEAEi5mQ2PcxnkybIOtSl0F0sALUSqwKL3XvBf1qFI325JGrXyh503dv4ml+0LZCKaAca9gkM8eMrDMv2EVwtJFI2O8EL9hqOA8iHSTyQcSBhbyow9b9aFBNZvI/c4kIdaGwFNl65Uz9P7uNeK6pHCXInwt/vGfWL74fIMYiRKFIJh6RoWCyieOpS3CtRm90OdeoUCSz12gsbGb4/hmsfRk7WhpaFfIgStAYuxrduVWGiXxkYjoC/wDlzDEe6kUFCqBkOCUYLnLAkcExxzx5H3rpZvH2GRBhUk+K9Dofmx/Pd8whl5u/KDMgrgjbRQhteBKOrgfKUAav71jhYTiwG3ulCG/oWCMVnoAaOSMQpn00d4E6s+WJYKFY62FkMIF6YP79Q5nUMTDfiR9ln1Dn7LUw9SaK/fmZ5iSTwMgA+Z+n6vfWtyqSnL3CY8XwJOEUKTDWg6M4X3JxgW2hchSGws4TPLpAMRg2UPVSpSifzbpJI4H5YsFCy/ySkAhHR+IpACnhH+xbodIUY68aAoiTPK5AFAC7uzY2fvpei1lUY8tTZyREURTgHWN+Mcf7UkQz5vUO9glPaPAd7FaMMnnBjIyMikoIEDIh1VrCGSOWMcYJ0TXjCj1ikSYDoP7E1y5Lt9IpZ1XztHvl07JcYKt4xt8Hlfej6RTMMnnBqQrtpJFSTP8hfFEDFD787lKxUPFvR/OBxgmwZiicoJQuJ8JZwvT2nUDtqTBZ/mbD5AMkg6x7rBtAgwIzH5gvA7Es73eNo37HSb5TBgGk3wmDINJPhOGwSSfCcNgks+EYTDJZ8IwmOQzYRhM8pkwDCb5TBgGk3wmDINJPhOGwSSfCcNgks+EYTDJZ8IwmOQzYRhM8pkwDCb5TBgEov8HUbx2WXSYV2EAAAAASUVORK5CYII=;" parent="WIyWlLk6GJQsqaUBKTNV-1" vertex="1">
          <mxGeometry x="240.5" y="79.36" width="69" height="64.23" as="geometry" />
        </mxCell>
        <mxCell id="oaHKMSnmFTuaICTkoKeT-7" value="LLM&lt;br&gt;(gpt-3.5-turbo)" style="rounded=1;whiteSpace=wrap;html=1;fontSize=11;glass=0;strokeWidth=1;shadow=0;fillColor=#dae8fc;strokeColor=#6c8ebf;" parent="WIyWlLk6GJQsqaUBKTNV-1" vertex="1">
          <mxGeometry x="700.5" y="120" width="110" height="110" as="geometry" />
        </mxCell>
        <mxCell id="oaHKMSnmFTuaICTkoKeT-8" value="Agent&lt;br&gt;(gpt-3.5-turbo)" style="rounded=1;whiteSpace=wrap;html=1;fontSize=11;glass=0;strokeWidth=1;shadow=0;fillColor=#6a00ff;strokeColor=#3700CC;fontColor=#ffffff;" parent="WIyWlLk6GJQsqaUBKTNV-1" vertex="1">
          <mxGeometry x="320" y="520" width="110" height="110" as="geometry" />
        </mxCell>
        <mxCell id="oaHKMSnmFTuaICTkoKeT-9" value="User" style="rounded=1;whiteSpace=wrap;html=1;fontSize=11;glass=0;strokeWidth=1;shadow=0;fillColor=#647687;strokeColor=#314354;fontColor=#ffffff;" parent="WIyWlLk6GJQsqaUBKTNV-1" vertex="1">
          <mxGeometry x="30" y="520" width="110" height="110" as="geometry" />
        </mxCell>
        <mxCell id="oaHKMSnmFTuaICTkoKeT-10" value="Question Tool" style="rounded=1;whiteSpace=wrap;html=1;fontSize=11;glass=0;strokeWidth=1;shadow=0;fillColor=#fa6800;strokeColor=#C73500;fontColor=#000000;" parent="WIyWlLk6GJQsqaUBKTNV-1" vertex="1">
          <mxGeometry x="220" y="320" width="110" height="110" as="geometry" />
        </mxCell>
        <mxCell id="oaHKMSnmFTuaICTkoKeT-11" value="Random wait time Tool" style="rounded=1;whiteSpace=wrap;html=1;fontSize=11;glass=0;strokeWidth=1;shadow=0;fillColor=#fa6800;strokeColor=#C73500;fontColor=#000000;" parent="WIyWlLk6GJQsqaUBKTNV-1" vertex="1">
          <mxGeometry x="400" y="320" width="110" height="110" as="geometry" />
        </mxCell>
        <mxCell id="oaHKMSnmFTuaICTkoKeT-13" value="" style="shape=image;verticalLabelPosition=bottom;labelBackgroundColor=default;verticalAlign=top;aspect=fixed;imageAspect=0;image=data:image/png,iVBORw0KGgoAAAANSUhEUgAAAJ8AAACUCAYAAACN3PsjAAAAAXNSR0IArs4c6QAAAARnQU1BAACxjwv8YQUAAAAJcEhZcwAADsMAAA7DAcdvqGQAAChlSURBVHhe7V0HfFVF9j6QAoSQ0AOETugghIQWQHroCKgIgoAiCrKu6P7c3f+6NlZX110LgoIFuwgqIL2FFkKX3qT3XkJIQoBA8j/feW/Cy8u9rySPd1/C/cIlL+/eOzN35rtnzpk5c6bQuevXMuvNfJ9MmPA2Clt/mzDhdZjkM2EYTPKZMAwm+UwYBpN8JgyDST4ThsEknwnDYJLPhGEwyWfCMJjkM2EYTPKZMAwm+UwYBpN8JgyDST4ThsEknwnDYJLPhGEwyWfCMJjkM2EYTPKZMAwm+UwYBpN8JgyDST4ThsEknw0yMzOtn+5C6zsTnoG5bpehCFaIf8oXC6aaJUpRxaAQKhlYlEoXCeLfxaiInz9dS79BKek36UJaKh1LSaQz16/RqdQkSs+4wzfjbhPu4L4lnyJcMSZVleIlqWX5qjSkViQ1KhVGxf0DmUsWKuE69dkW+P5Wxm0mYDJ9d2grLTtzkI5dS6TUO7cIKZtEdI77knwgTtrtdBpQvTG9HRVLYSztivkFZJFMi2xaUATO5J9bLP2u3EyjSfvW05R9G+Q7E45x35BPSbCihf3p2Xot6bEaTSgipAz5FS5MhV0kmzMgD1DuOHfJc47vpfd2rabrt2/JOVcJfT/hviFfYe4Im5etTP+M7ESty1UTwt0LQtyVhkzC5ET6vy2LKY675NsZGSYB7VDgyQcy+BUqTO+16ElDajalQD8/MSy8QQTkfTszg2Yd201PJ/wq5TAJeBcFfqilAutzMzoOoadqR4vFWtgBAaTbVJLL+tmVQw/Ix5/ze7TGA7SixzNUO6SsRSSaEBRYyQdS1AktR1+2fZgal6og3zkinfzm49KNVNqfdJGOst52IS2ZTqRcpcRbN5hEhSi8eAgbJyWoZEAxqh1alhqULE/BNpaxs/RPpF6loaum067Ec3KtfI9b+JflCsufd/9jPdXyR4FEgSQfGrViUAna1OdPFBxQRL7TIoYiBbD36nn6eM86mnZ4OxshlmsdkQl3FuEuvG/VBvTXxu3ZeGGpxsAdjvLC2GD03Il0485tCizsR9WCS1KpwCAq7h8gkvkqW8xJ6TfoKhP+PJP/dgbygurAaVoJq1eu/IYCRz40TmhgUZrV+QlqVibcIREy+PeGiyfog93xlHD+ON1kQrjbsEgrgEnUslwV7tqbU9/qDUi0Sp10cH0iE+xa+k0qWzRI7hXjh3/AeZRJHWl30ulw8mU6woZLwvmjFHf6kJA3K+V8TsICR74A1rFmdBpKHSrUkL+1SJDBlufptGv04e419NWB3+WavEgUdS8U6MG1IukvjdpR9eBSuukp8itoXWd7DT7hb1jMc0/tpWmHttH2K2eFxLktsy+gQJEPDfRWdDcaU6+1EMG+YXAeEgW6V6t5n9AtlnR8kfWsZ4Bxw8BCfvRLpyHUulxVKsx/ewqKkCDh5VvXacy62bTm3NF8O4xTcKxdbhgYAM/UaaFLPByzj++hDgs/ky7W08RD+uhy/9eilxg5niYE0sMRwLpmWNFgmt7hcbGio8qyesHnLZpo/kGBIR+U9zciY2VoQ6vRIfHmndxHf94wR/QtTxIDpIPVO6puC9re7wUaVLMJlbAaOvcKKD+euRGTfHbnYfT3Jh0pyC8wX9GvQJAPjf9QtUbUqWLNHKTCORDv4LXLTLy5rMSzxPMQkDZmTh4oU1Ek0HvNe1KFYiWyZk8cERz32h8op/13jiB58G8Q/eVGD9Ki2CcpxL+I5T4n9/oCCoTOh8qO6zGKojSsWxgXJ68nUe9l39DJlKsOCeEqkF8Gy5j6oeXpvy16sqVbVaSQM7LZIp3LdfFGCutsx2j31XPy+frtdCZSUYoIKS1TgA1KhQmxbFPVywPp4+cQv2RDV8+gA0kXPfKs9xL5nnyo9MgylWhh7FNU1M8/W4WrBvnb5kU09cBm/pQ3COn4gBfMmPqtaUitplSuaHEmh3MpB1y6mUpLTx2kdReO0+ZLp+gwEwW+gJCUyrkBVyKPO5kZkjaGi/B8farWZ502TMb7MEujB+R1NPkKPRE/g/YmngdbrWd8D/mbfGhUrtxpHQZTt/DaORoFDQEPkwcXTKFkq3dJXhDAefWt2pD+FRVL5Vnhd+acIOTn4+KNVJp/ah+9u2MVXUhLEYvYnRcBWdxIT6dhtaNoXKN2Mk2nnlQrfyEgP3ePJVMlP18lYL4kH6oS3VYJVvI7VqxF37UfKMSzb4jbLFWGrJpOS08fyH0DcEMi3WYsff7bvBc1ZAU/gMnjlHTyO4M+P7CJPt69ls4zCTLzyAGkiWfuW60BG1ddqExgkJTDviyW/DNp++WzNHDlD3TpxnWH5TUK+Yp8GM+Ci3uLslWoF3dDLcpWFnd3QKsBTqYmUZv5n1JKLqUe0qhfsrxYsZA6kDaOulhcD6DLXHH2sPjzbb54yiKlPNn4nE3DUuXp/Ra9qXm5KvIyahKQjy+Y/H9ntcOj+XsIPk8+VCBckaoUD6XR9VrTExFNKYjffjSzVqUrwNAYv2M5fbQ7QfcaLSgClSxSjHpVricWbDH/AId5qXugq8G4eXXLEvrt+B7ylwFm1/N2C5xXicCi9FvnYfRA6Qqa7looF16Ewaum0bLTh9yqB2/AZ8mnGhTztHjDu1euI6RzRAIF3IuJe0zgYy7UFUhufB9+P8R63f9a9qSyRWBMWOCMeLBU39m5kqYe3ExprJ8B97qxkTfmhie1fogeqdFYhn3s88RLeCj5MrWbP4VuZt65V69CrpBdQ/cRoFIxdDG0ViTF9xpND1dvJIt6nCn4tjiZepXOcLfrEji/QswhOAdAknzedgCVY+I5Gq9DGXFcv5NO3x3aQh0WfUaT9q6jG7ctzgmuljMvQB6wll/etIDWnz8hL456GRQwvVerRBm2zlsJEX0JPkc+VF5IYBH6b4teNKFVX6pavGSuGnN34nnucrI3hD2kofjAcsl3m/egWUy8DhVrUhEXxuzQ6BgueXTFDzRuw3wZX/MG4eyBPJPTb9ILG+eIVa0FvETPN4iR5/Ql+Bb5uFFLs661rPsokXruSDp7nEhJ5Hutf+gAJOoaXpvW9h5Lo+o0527dsoJNL09cDx0KvnaPr/qJei/7mtadP84MsF7gIoT0DI9Rlct7NDmR+iz9xjJnbQc8Tymu1xFsNGVw+X0FPkM+NAjmKZd0e5pqczfhiHhCAu5C8Fs1pC0w+4DhBUfNi/tgyU6JGUBluGGckQ6NhuWWb25bTm3nT6a4M4dkuEfvHkfAsz1esyn9pdGDMj6J/jKvREQtnEhNpIPJlzTrhJ+OBlRrJJ98BT5DvjohZWlKmwGsn5TWJYKFBJmUxJJn+pEdsjxRE5mFJLqAo2pG8wys+YBEJXBGPJBuNuf14MLPaMKeBDqTds1t0iEdOD30qVKfNvX9E33MKsX/NelIP7QfTD91HCxTg1qkcQc3Mm7T2HVzKPX2Lc206oaWk6lAX4Hx5OM6wvqIb9oPFJcoLSKgIlVlfn9oK0XN+ZieWz9b5kS1gMFcWLvOgFkKLYaq/DJZsh24dol6cvf6ZPzPrNddEqnlLvDCVA0uRUu7j6RvHhwoBoBaL4zpstjwOrSg21M0td0jFOQXYL3LfUC67U48RyvOHM5BPtQp8oPLv/05o2Ao+VAJQQEBNL3jEJmkB7SIB5y+fo2GrJ5OL26cR1dupXFFoujaRMC3ziTT3bPa+SEGy4ub5lOnhZ/T9stnpOGcpWkPkA4ezRNa9WFpN5aalq6Uo2yKFPDARre45aE/07gGbWQ9B0riLlFw9ezju3XLWql4CS6De89xr2C45HuYKxxTZIB9haHicaw8e5jaLZhMC0/+IZXrKWjlB1+/b1m6tl8wRX5jKAXX6TWmFjCkgfFJGE2LWaINj4hiC9ri9KCXjvoeTguvRXahNT2fpc5cL0JCNwm4+PQBMYq07oO0h9HkCzCMfKiY8KBQeiOyaw5pAOA8qm7thWNiWaIy3SFAboAcY+Z9QuOs0tUdSHmtR5sK1Smh12jR69DYinS21+Cwh7oOB1bD/cw9wvSOj1Pl4qHWK1zD9fRbtPXSaetf2YGIW/CW8QUYRj7Q6J3o7iIhUNm2kMbhn+VnDopjgCv6m6cAY0brZXAI5hGursc6K1bN/dJpqLxY0OtUOopsiN0CPRLSR4+EAO5Dd9y+Qg1axVLw31HdhDR612cD3xd//iiKlQ1IEzrm03VbuJbOPYYh5AOx4PHbJswSM0UL8MgA8Tzt8u5poGSViofQK00709JuI6kDd5UwGmzLjIZGFKs1TIhBLMXRpb++LU5i/IECjglYmMoUCaJn6rakJZz+4JpNqYTyVtYBct555SwStnxhB8zk+AIMIV8AZ/s1W30Y+LQHKhWzB29tX8EN5rurslBOzKX2qdpAhk5ebNROvI5tDRNcAwmHmYeh8dOpz7JvKeH8MbrJz/fp3vWygu6bQ1tkKMchmYSEhcR4+aT1Q7Suz3MyMoDFSnpA5IV0Hd0OUtkX6tXr5MMjVy9RiqLKVubPdxvKFu/sXEWrzh3mc9YvfAR3CZJJ7SvWpNW9npVwHJB0qEhb0qlrX92yVPTIZacOZpfy/BHS8K+bFtKDC6dIcEl139187gJpCwm5Kw8PCpFZoJ9YHwwNZClovcYWWHAOFzR7IA14fGPM0Wh4vQSokLasx9g2lgIq/VxaMv14eJtmhRoNlKleaDn6LOZhWbbYsGRY1mo5HIo4kNwzju4UX8JP962ny2y82D+rAhxeMS8MFWPEmp9p79ULDrtiAGlhKrBLpQja9tAL9M8mnWSw3PYevNiWEmeHo3S9Da+TD75xzzdoo6nroVq+OrBZvH59BYpQiFwK9/k4ljiP1mictV7EnlRYkN5z6dc0eu0s2pd00fqtPlQaICxmbDou/IzGsz6ohkr0yKLyhfWKCAkJPUdTbOU6YlAA8Aqy+BPmBBwRkJ/R8Cr5UJGRpStqhpLAOViakBR6Roi3oUoBJX9Nr9E0tl5rp84HaPR6JctZJc9dkjiDShN62oQ9a6k9k/Drg1uka8a8shYJ1T04KhUPpR/bD6LfOg+XKTSoAv6F/KxXZgfmf30BXpd8jZh8Wp4VqNwVZw9RSnreF/rkGVwWUKZ1+WoyzjaxdV+qWaJ0NmMCYLlk/WQBzsGKn9CyL/3aeagMk8jVGsRxCL4J/ogvbJhDA1f+KE4McA/DmhA9IG+oADFh1ejXTkPpzaiu/J31pB12XdGelvQ2vEo+TDc1Kmlx+bYHKm/tuWPcwF5/H3IAg7r/ad6T5nUdQd3C0ZVl1+vwHPBcPpR0mVL5ZcHfSjLhGpAUszbwD/wkpp/M62pJLmdAvojFMnDFj/TMull0KPlKljePFlTewQGB1Kp81Szpq6DKvuqsbxhzXm1pPG/dUEscOy2gcu3qy8soJG5OK3s+K5FMURRFOgCNhx84GAxc8QO1WfApDVj+Hf0hRkJOAuKugdUfoJU9nqE3I7tScTedBpCOotnsY7tlnvk/u1YJ8aUs1vzsYcn/7gC3LRLZ+Nkisx+GVrTAq+TDiD+GWewrBZUIBXhPorHdAUo1rlFbGdS1n53AcTr1Gr2+NY6Ngs9lvA7+fBsvnqTOi7+gV35fQkf45bElBe5HOhjPfL5hG1rWYxQ9Ur0RV/pdy9gVqHJgFd57O1fLOuRfj+3KGh90NR3gbFoyFbYGvzQaXpd8egF0MCiq5wbuLaCR1QGohoV1GM8qQcv5k2jivnVZzgYAfmP6b/L+jTJzsfT0QZmVsSWFpMm/MUzzRdtHaG3vMeLICmvUHeIASAsBI0eu+YX6xH0jMWgQdNyVdHCvLCL3AakHeJV8xfwDZbWVFs7dSOEq8Y1KUcRBc/6RdJFaz0P3+q1M2OuVEN+nMikHr/pJ/A0hEXG/SksIyAcAp87l3UfRl0xE5bWCw1UgHT+uR3Sf8PYZFj9DCG+re2ohKx838rqX8Cr5MBCqN4wCyWc091TjoBERaGfwymkUu/hL8VwWO1On7LbgFOjyzeuiCz7GeuGeq+ezSCENzwB5gtgo6Gv1ah7XsJ2sznMXSAdDMYtPHeCueDL9cGibDOKrfLQAa3hIrWayWs9oeJV84p2i89AS2kvvpBeBl+A/u1ZTF9bjMOWV22gHCMUWx1Zl7KIvaPz2OM2Bc0yVYXXeq0070cJuT1HXShES1dQRefRwIiWJXtwwV/b7wCyRVhogKwbLP2rVRxaaGw2vkg+6Er+X1r/uAhVVJbik4W8jyoEpsf/uXMWkY2Xe+n1ecJ1J+PGetSKZIKXsAUKgN0AkU6znmBc7wjIIz+fcIiHfkMHH3BP76GGWuHiJ9AiIWRCsl4GDq5HwruTjBk1l3cQeqBBYmCHcLRsKbjwMY3CBrF/kHXg2pJeGxeTW7+yhCIgARNFlK0ugyXeie4ivo1sEBDgThEbrG/ctnbmexF2+9sA0Il2NYwvc7fQ9CK+SD+5F4sNm98CofExLNSwVZv2m4MFepUAd2C//RD2AoBiaeaZuC/q97/P0VJ1o2aPDXey7eoEt4pkygqBV3yD70IhICg1w7Bt4L+FV8kHxPppy1fpXdqBC8DYaVA+GAGN1/9sdL/59ioRCQD6AskWLS5yadb3HigcNqsYVoqg0YHEjUpaeFVypWAi93izWpTTvBbxKPoy6Y6cfPb0Pu0JCRrgMvUrj77Xy8DXAieCtbctlfPAXJiIGrRVRFIFwIEIXHBu+bPOwDNM4CwOSBebwdwe3yIIipGsLlfagGg9QuJtrRDwFL5OvkCxD1NJ9UBEIXaE3DmgPVCUMGC0gLeyBgX3SfB5cVuz19vSaX+ixlT/S5ksnrZ4sd8mC5wEGVG9Iy1kffIF1tRCdwXp73OZ03t6+XBaU20s4pAs9E46xRgQR8ir5gE3cFUD51qoIeIRgKaUrQgvNsYTfaDRUjrT4GBbRjHb2H0c9K9cV686FJA0Dnh2Dxpjw77LwS/rLxvniXmbrSoVr0HNA/3ujaRf6nKWgq9jDBghmXuzrCfDnfAfXaCL5exteJx82tZvyx4Yc3QCAb/7WpAO/1a4NuGIudfS6WZYhHE7PtqHgEQIjBlEAsPCmZdkqPjGw6hBcbn+/wvTjke3Uau4k+nDP2hyhLyxELSxezAOrN3bppSrE17+xdRnrltovfeuwauKD6G14nXyYVJ93Yh9XWs5qg8SqyvpHf5Z+Wm+pFn47vlccL+ed2Jvl7QGgUnFgLCuyTDj91uUJ+rRNP4ooUcbltI3EhRspNJ4J8xZ3mVrlhQpT10XCoF4RGH2Hjh8fegaEGvY2vE4+4OC1S4QoUlpvIbqWf0XHUkRIGeu3zoEtBYbF/0x9476RqS01xYTDkiYWzQTQY9y9rOr1LL0a2UU8kn0aXGaU/crNNMrk31rwK+Ro/Vp2oA7mnNhj/SsnGpUKk6Efb8Lr5EOFoisZmfCL7pLB4v5F6O3o7nRTQzfUAxoBE+1Nf/tIgvpgoh1Q9yNfAO7liIWS0HsMtQ2r7nLjGQV4rOjBnbIjFb0oBkxzquXGy+4pGCL5QAR4Le+6ej5H94tzqNTOFSPo49Z9xTXcFQLKfULsdNljDT5vH+xeIxECcD8OdQ2kQI3g0jKv6uuA3uqJFwRpYIBfRUqwBeqkGtcFdElvwhDyAXjg8VvjsulpCjgHPQQW6+j6rWT4xRUCKuB+rCJ7e8dK6rr4Kwk0pIYvbEmoDlsgF3fycgWSnl0+rkLLMMstzqWl0LVbFl9De2As0dtreQ0jHxpj/cXjbPlu1GxwkAKke71pZ/p3dDf+xv1GgFTdl3SeBq2cJn52WB+LwWd9chWisfVbW5ZFekTeIEW2YPk5noiIlBfKXcjCIetnTwA7E9m/cADKGBx4b3fKtIdx5GPgrf5k3zrxeQO0CIhKwfbxP3ccSrWhl+SiJTCTsPLMIeqy6HN6k6XtaeuEe478+MDWoQtin6I+VerlWepkZGRSz8p1aF7X4fR2VHcxptyFLEq3fvYETjuI0F8ywLuOHYaSD+TCVu29ln6lu18GroGO1iW8Nq3p9RwNqtVERvdBHH0JpgFO4xrrfx/vXUvtF2BoZp+uuzs22vv6wUdpdqeh1KhkmHznal5yHf+rG1KWfuo4iL5r/5iso0UaWhLHOTwr+TCjoYdbd7y7kNxQ8gFokOT0WzQfgR91GlgRMJArbmKrvrS420hqXLqinHOVFIAiAIZjnkr4lWIXf0E7rpyVxkU6OFRe+OlQKYKWdn9a9lzDUI26RgvqHFQFbKuwvOcz1L1yPUlH0uMjN9AL9pNbVC9RWvcZEm8hiLr3YDj5ADQL9lRz1kA4j24YC3GWMSm+aveoDBE4IoUWkA661P1Jl6j7kqn03LpZdIA/a5EQ+t+TdaJpR/8XaAT/DraTuuozPISH1IqkXf1folF1m1uCB/H96pls73EHjiSVu0BKMCy06hmjAjfvN8kHQDpUdnPYAxu19K/WkOJ7jqY/1Y8R9yN3gUaAa//0IztlewPon5CKioTqGjQVIox+wBJwXpfhEmELQyAgMMjRlKXwXNbrIJXDimXffxfp4DrM1bpPPUvdOH4lXQfqCC+TFq7ctMwlexM+Qb4M/qkWXMr6l3MIIayNi5mKN6NiaUOfsdS3agNLABw3JIxK6zaX4fWty6jxzA/EYSEHAa1HU9YH58eOkD1+4d6E6PILWQ2AB7LtdYBIO/69+twRipkzMVfBeaCH5Ya0WsD8rd4GgXB1K/AzHFpoX7GWZXjDrlIAaUAdMqmGxhAG3PA/i+kvTgTR5So7DCuhB1wN16Phq3+W3YV+v3w6x1QdjqKF/akT64PxPZ+lHqzXFbOWHYekw9ci/x2J56hf3Lc0aMU0SmYJm/PpnMNTA78oWxNEw7eW0RYo75Hky7jI+o13YDj5IBuiy4RrNgwq5X+74mnV2SMsARxPtaFSsQYWfnxzOg+X2ZFqWJRkPe8yOJ30zDuykV6PJV/RSxvnyfgg8lb5Iy/RB1nqZtPr+Ad+cUdSrtA/tiymrou+oDUSiZTLzj+5AQZaPEEJ7CnSLby2Zh3iG+i8eBZvwnjJx0+OCFBalQLpge0PsAZ2ePzPlHzb8cJoIQVLCsQAHBYRRQm9n5NYgLlqd24HBG787tBW2VFy2pEdusmgPNCXICWx5SmGcj77Y2NWN6slbVzFHRkWzxuQO8KUtNCJxYzyIfyHt2E4+fDgehZYOlc9wrui8kHCJrMn0Ls7Vor/HhrcEQmRWrB/oGwHv6InYqQ0tpx0ESptBPtG1Pz+1RrkkEC2ZcBQESTdy5sWUkq6JYi51jPlBnlNBS/sy43bs3GUU7VB+TH9iD15PVVeV2E4+aCvBftrT+vcyUAAIVaC+RpItES2RLEgBtGa5pzYayGmtfHtYdv42PnnszYDaGrbR2SdiC1ptIBzWEH2dJ3mtIat6SdqNWPDJruDq6TBPztZrxuZ8CvriTNo+5Wz2fL1BMSxwvo5N8BjPlCqguxupFUqOBr8cnSnENTbMJx8eGgo+VqweCOjiJaKUQ2LfSxGcDfcP+578Q20BE7UJpS6B/oMhmYWxj5Jb0V1EyvZ/h75zEdM+WoU32uMbHFfmg0ZlQYOXIMywy3sjW1xssh81rHd8oLgvKeBrju3qVqeL4P+0aST6MP25cN5uGyt5S7X8yV3Dh8gH9G1m9pbNWEMDUq91quPitx48QR1WvQ5vbRpnuzNBkmklY4C7gGhx9RrRev7jKVRdVtYnQgsDYGoATM6DqGZnZ+gykEhIm1Vg+E8jIkbLG2/ObiFYuZ9ShP3rJMZjXtBOgXMB+s/kXNgw5fO4RGaZYRO/cneDXQyNemePoMeDCcfFlYcT9X2tIClB2NED7gHkUG/P8hGwcLP6MsDm2WQWMtpQAH3QArCl+/d6B7iRNChQg16LbKzTNthbYT9sA/SggUczxKiX9x3YgGfvJ7EiVkvuIeAN19us2lerjL9vUkHTVcpPBMCIL2/a5U3HkMThpMPVZtw4bj1r+wAARCW1iH4GtAMsUn+tnkRRf42gfWw85pxURSQriJhszKVWNINk0hR6IrtpR0s2AucNrYq6B/3LW26dCrrvDvILYUw+O2u5EO5sYEgYr+UKVI8R3lxHqrDdNb1EEuGL7Ce8S6Ml3yMpacOyjQXKsUemMrCvKnWOVuoCkZUqW6Lv6CHl38vkUTRVeJerftxjzqyjdfxtWgc6Fuvbl1CLedOpGWnD7rdSJInH5iKe61ZZ+ny3UVuDIHW5atKKF7s1aY1dodyYa3whN0J1m+MgU+QL50NjvNpyda/sgPdY+1Q99YX3LqTIeNWLedNote2LRN9ENAioC1wHgf0ummHt1EMGxOT922QPTHcBfRPkO6xmk3YeBnNlnMLTSI4Q4CLi4RQbowc9GOjCluLYQ201n24DgbauA1zxZlAvXBGwCfIl8nVBCllD1QMQsd2r1zX+o2L4PrEvRhvm7R3nRglGE5Q0hWHPfAdLD+Md/Vb/h39af0cOpx8RdJRhytAOriyQWh5Wtx9JH0a00+28AdcTcMWILFD4Fn4gFU+JWYAfdFmAIUVDZZT9vmhbJDmiBe4+dJpZynfc/gI+TJlX109YIwKb7W7laVIgzjEo9fNFvep+HNH5ZwiIQ50zdDrxqydLWFmN13MnV6HtDAeOLH1Q7Sk29MUKTuLa5MXzyLzz06eShb8WD/bA+fgZ/hK007SzT5cHfVk0Vlz5Gd91vkn99FEfiHVC2okCp27fi2z3sz3rX8aBzgGIERsqcBi2SoFFQal/6VN8+n7Q1vzXGGwZPtVbUjDazej6sGlJdj3zOO76duDW8SbGqm7nQeXEbEFn63XSkKalWddS5FOC0J4Pl7ZsoSm7N8oeWoB1w2vHUUftuzNXXZ2OYFzGOOEJat2dHKW34yjO+gF7m4Rv8UX4DPkgxSY2u5R2SrAvhJReViN1m7+ZEpmPSWvQOqwhkF46D1oDOThLulwD/S69mHV6c2obuJiZWu46OEO530kJZF6L/1aJK4ekP6LbIW/Gtk5h76IcwqO8sN16Gox/Yf94PDc7j7nvYJPdLsAXId+OaY/zYNB39ebdZVxr7y+t7gfEgNrOJQUcKdB0KDoqrGdAba5mtZxCNV3Qjx1D/zzFrPl3H3xVKcbHKJLrl5C2zMH+ahDDxbiZdCEvWvpmbUzfYp4gM+QD4jjRtlw4UQOAqLC0O08GRFFParUQ61az+QeuW0ENGgVtsDfiu4m6zvahtUQowjBePTSxD3AugvHaXj8DBq88kcZDHdaBr7N0SC7HhTRsVPSGNZ1/7VtuVi4vkQ8wGe6XQCV1qxMOC2IfVLTuRTnscg8dsmXEvbLm5UJ+iCEbLfwuqKDwW0LuTsqgyLdqdQk2VH8/V2r+XrX33ekvHfASxJn0NmzqrwA1BG21B+VMJOl+w1Ox7kqYAR8SvKhgrZdOSMRpzTX1fJ5zEL81GEwlWGlXs7bXeNJIH111A0pQ6t6PkuTY/pZZkK4LHoNqu6BnTr5jw3UYu4kJl48X+96deP+ykElZT9dR1B5qc8IG4ftuIas+kn0Y/QYvkg8wKckH4AKxDjV3K4jZJE4prvsgW75IutLz7PltvT0AYtO5OEKVg2KIOV/e6ADxYbXkUVLjhpSEQHLHRewgg/C/XHtoq4e6xB8DwwweOLY56nKhv+RNgbosWfIT4d30LbLp31Ot9ODz5FPwBXak3W7qW0fpSJ+2g2OBsAwybs7V8kwyfU7sII9VOGcdll+AUbUjqKx9WMoJLCIpOyMeBikPsqS57Wty+SlyAXlslCRu9qNfceKr6N9viAc8kGUV0z7YZ9irI4DkGd+IB7gk+Rj+SFRRJ+s05z+E93DotDrEBCKNLqa4fHTae/VC3nSbzgXSmMdaTjnOz4qlsoEWnz5AL00UQaQAY6tWP32w+FtDp0aXMXI2tGy56/WAiLM1DSc+QElpiPGoaUM+YVwtvBNyWdFAOsrCOQ4tl4rqVytCkbF422Ha9WGiyfoe1bssQsPrsT1IIbefZImf8YgdoViwbI4HMsvsSUDFqc7mouVfPkA0SbuXUs/Ht4u0khLTXAHSLNByTC2pEfKfmz2ZYcuPPmPjfSPzYvynJfR8GnyAZB6CFeBcGmKUPZAgyngE+LQLTq5X/bv3c8618mUJFl8hAFlTD9hCgwDzLVKlKY6oeXECwSBIjE/ivv18lFQ+WGLAWxthSEUdbWj+1wCp/0+W9MjIqKZXDnTSr51k1rN+0SCHeU5L4Ph8+QDUMWvNOlE4xq2lW4Ije8KORRgAGAGxTLWZVk3Am8RLcnmSrqXb1ynP2+cK0aFyB4H97gKlfbjEZE0qWVfKYd9WTB2t/DUftkN05914fyOfCG30XX+e+dK+vOGOZatURn2BLOFajh1YAoM43LBAYHSlWEyHiS2vw6HPZCPOjBm9ua2ZRQ9b6KQQMircU9ugPSxHek7Ud01y4LzmI35cE+CxxaSG4188RRoCBAQa2exUcrqc0dlDE2R4l5BpZ3CXTa2qoqZP5k+4m726s20rG7WE4Ae16BUGH3Sup+Ef9N6CfD8iCWzJZee1L6IfPcKIeg33NnHb1sukdq1Ygx7EvB0eWT5DzIpj8CKWlIpT+CiNy9blX7rMizLO8UW6gWDYfPF/o3WbwsG8h35pHH4QJBHeCr/la0+eLwgugB0Ik8TsTh31S3ZIPFkqlJG/od1c2Pqt6JZnYdKFCwt4gFYpjlg+fd09nqyZ4lvMPKFweEQ3D5Bfv7UMTxCts5qVjZcGlLWqeL83f+yukppUhuS6jWoanx4hmAgd/z25XTg6kXKU9woThNTXli49FKjdrLfnHIAtQfyhzsUdj7/cNcaytQuZr5F/icfQ5EE/3MnJaFsW5WrSkMjmlHl4qFi3aLBLd7QGBS2eAFjsHbDheNUKShE4pg4IgEAEi5mQ2PcxnkybIOtSl0F0sALUSqwKL3XvBf1qFI325JGrXyh503dv4ml+0LZCKaAca9gkM8eMrDMv2EVwtJFI2O8EL9hqOA8iHSTyQcSBhbyow9b9aFBNZvI/c4kIdaGwFNl65Uz9P7uNeK6pHCXInwt/vGfWL74fIMYiRKFIJh6RoWCyieOpS3CtRm90OdeoUCSz12gsbGb4/hmsfRk7WhpaFfIgStAYuxrduVWGiXxkYjoC/wDlzDEe6kUFCqBkOCUYLnLAkcExxzx5H3rpZvH2GRBhUk+K9Dofmx/Pd8whl5u/KDMgrgjbRQhteBKOrgfKUAav71jhYTiwG3ulCG/oWCMVnoAaOSMQpn00d4E6s+WJYKFY62FkMIF6YP79Q5nUMTDfiR9ln1Dn7LUw9SaK/fmZ5iSTwMgA+Z+n6vfWtyqSnL3CY8XwJOEUKTDWg6M4X3JxgW2hchSGws4TPLpAMRg2UPVSpSifzbpJI4H5YsFCy/ySkAhHR+IpACnhH+xbodIUY68aAoiTPK5AFAC7uzY2fvpei1lUY8tTZyREURTgHWN+Mcf7UkQz5vUO9glPaPAd7FaMMnnBjIyMikoIEDIh1VrCGSOWMcYJ0TXjCj1ikSYDoP7E1y5Lt9IpZ1XztHvl07JcYKt4xt8Hlfej6RTMMnnBqQrtpJFSTP8hfFEDFD787lKxUPFvR/OBxgmwZiicoJQuJ8JZwvT2nUDtqTBZ/mbD5AMkg6x7rBtAgwIzH5gvA7Es73eNo37HSb5TBgGk3wmDINJPhOGwSSfCcNgks+EYTDJZ8IwmOQzYRhM8pkwDCb5TBgGk3wmDINJPhOGwSSfCcNgks+EYTDJZ8IwmOQzYRhM8pkwDCb5TBgEov8HUbx2WXSYV2EAAAAASUVORK5CYII=;" parent="WIyWlLk6GJQsqaUBKTNV-1" vertex="1">
          <mxGeometry x="721" y="79.36" width="69" height="64.23" as="geometry" />
        </mxCell>
        <mxCell id="oaHKMSnmFTuaICTkoKeT-14" value="" style="shape=image;verticalLabelPosition=bottom;labelBackgroundColor=default;verticalAlign=top;aspect=fixed;imageAspect=0;image=data:image/png,iVBORw0KGgoAAAANSUhEUgAAAJ8AAACUCAYAAACN3PsjAAAAAXNSR0IArs4c6QAAAARnQU1BAACxjwv8YQUAAAAJcEhZcwAADsMAAA7DAcdvqGQAAChlSURBVHhe7V0HfFVF9j6QAoSQ0AOETugghIQWQHroCKgIgoAiCrKu6P7c3f+6NlZX110LgoIFuwgqIL2FFkKX3qT3XkJIQoBA8j/feW/Cy8u9rySPd1/C/cIlL+/eOzN35rtnzpk5c6bQuevXMuvNfJ9MmPA2Clt/mzDhdZjkM2EYTPKZMAwm+UwYBpN8JgyDST4ThsEknwnDYJLPhGEwyWfCMJjkM2EYTPKZMAwm+UwYBpN8JgyDST4ThsEknwnDYJLPhGEwyWfCMJjkM2EYTPKZMAwm+UwYBpN8JgyDST4ThsEknw0yMzOtn+5C6zsTnoG5bpehCFaIf8oXC6aaJUpRxaAQKhlYlEoXCeLfxaiInz9dS79BKek36UJaKh1LSaQz16/RqdQkSs+4wzfjbhPu4L4lnyJcMSZVleIlqWX5qjSkViQ1KhVGxf0DmUsWKuE69dkW+P5Wxm0mYDJ9d2grLTtzkI5dS6TUO7cIKZtEdI77knwgTtrtdBpQvTG9HRVLYSztivkFZJFMi2xaUATO5J9bLP2u3EyjSfvW05R9G+Q7E45x35BPSbCihf3p2Xot6bEaTSgipAz5FS5MhV0kmzMgD1DuOHfJc47vpfd2rabrt2/JOVcJfT/hviFfYe4Im5etTP+M7ESty1UTwt0LQtyVhkzC5ET6vy2LKY675NsZGSYB7VDgyQcy+BUqTO+16ElDajalQD8/MSy8QQTkfTszg2Yd201PJ/wq5TAJeBcFfqilAutzMzoOoadqR4vFWtgBAaTbVJLL+tmVQw/Ix5/ze7TGA7SixzNUO6SsRSSaEBRYyQdS1AktR1+2fZgal6og3zkinfzm49KNVNqfdJGOst52IS2ZTqRcpcRbN5hEhSi8eAgbJyWoZEAxqh1alhqULE/BNpaxs/RPpF6loaum067Ec3KtfI9b+JflCsufd/9jPdXyR4FEgSQfGrViUAna1OdPFBxQRL7TIoYiBbD36nn6eM86mnZ4OxshlmsdkQl3FuEuvG/VBvTXxu3ZeGGpxsAdjvLC2GD03Il0485tCizsR9WCS1KpwCAq7h8gkvkqW8xJ6TfoKhP+PJP/dgbygurAaVoJq1eu/IYCRz40TmhgUZrV+QlqVibcIREy+PeGiyfog93xlHD+ON1kQrjbsEgrgEnUslwV7tqbU9/qDUi0Sp10cH0iE+xa+k0qWzRI7hXjh3/AeZRJHWl30ulw8mU6woZLwvmjFHf6kJA3K+V8TsICR74A1rFmdBpKHSrUkL+1SJDBlufptGv04e419NWB3+WavEgUdS8U6MG1IukvjdpR9eBSuukp8itoXWd7DT7hb1jMc0/tpWmHttH2K2eFxLktsy+gQJEPDfRWdDcaU6+1EMG+YXAeEgW6V6t5n9AtlnR8kfWsZ4Bxw8BCfvRLpyHUulxVKsx/ewqKkCDh5VvXacy62bTm3NF8O4xTcKxdbhgYAM/UaaFLPByzj++hDgs/ky7W08RD+uhy/9eilxg5niYE0sMRwLpmWNFgmt7hcbGio8qyesHnLZpo/kGBIR+U9zciY2VoQ6vRIfHmndxHf94wR/QtTxIDpIPVO6puC9re7wUaVLMJlbAaOvcKKD+euRGTfHbnYfT3Jh0pyC8wX9GvQJAPjf9QtUbUqWLNHKTCORDv4LXLTLy5rMSzxPMQkDZmTh4oU1Ek0HvNe1KFYiWyZk8cERz32h8op/13jiB58G8Q/eVGD9Ki2CcpxL+I5T4n9/oCCoTOh8qO6zGKojSsWxgXJ68nUe9l39DJlKsOCeEqkF8Gy5j6oeXpvy16sqVbVaSQM7LZIp3LdfFGCutsx2j31XPy+frtdCZSUYoIKS1TgA1KhQmxbFPVywPp4+cQv2RDV8+gA0kXPfKs9xL5nnyo9MgylWhh7FNU1M8/W4WrBvnb5kU09cBm/pQ3COn4gBfMmPqtaUitplSuaHEmh3MpB1y6mUpLTx2kdReO0+ZLp+gwEwW+gJCUyrkBVyKPO5kZkjaGi/B8farWZ502TMb7MEujB+R1NPkKPRE/g/YmngdbrWd8D/mbfGhUrtxpHQZTt/DaORoFDQEPkwcXTKFkq3dJXhDAefWt2pD+FRVL5Vnhd+acIOTn4+KNVJp/ah+9u2MVXUhLEYvYnRcBWdxIT6dhtaNoXKN2Mk2nnlQrfyEgP3ePJVMlP18lYL4kH6oS3VYJVvI7VqxF37UfKMSzb4jbLFWGrJpOS08fyH0DcEMi3WYsff7bvBc1ZAU/gMnjlHTyO4M+P7CJPt69ls4zCTLzyAGkiWfuW60BG1ddqExgkJTDviyW/DNp++WzNHDlD3TpxnWH5TUK+Yp8GM+Ci3uLslWoF3dDLcpWFnd3QKsBTqYmUZv5n1JKLqUe0qhfsrxYsZA6kDaOulhcD6DLXHH2sPjzbb54yiKlPNn4nE3DUuXp/Ra9qXm5KvIyahKQjy+Y/H9ntcOj+XsIPk8+VCBckaoUD6XR9VrTExFNKYjffjSzVqUrwNAYv2M5fbQ7QfcaLSgClSxSjHpVricWbDH/AId5qXugq8G4eXXLEvrt+B7ylwFm1/N2C5xXicCi9FvnYfRA6Qqa7looF16Ewaum0bLTh9yqB2/AZ8mnGhTztHjDu1euI6RzRAIF3IuJe0zgYy7UFUhufB9+P8R63f9a9qSyRWBMWOCMeLBU39m5kqYe3ExprJ8B97qxkTfmhie1fogeqdFYhn3s88RLeCj5MrWbP4VuZt65V69CrpBdQ/cRoFIxdDG0ViTF9xpND1dvJIt6nCn4tjiZepXOcLfrEji/QswhOAdAknzedgCVY+I5Gq9DGXFcv5NO3x3aQh0WfUaT9q6jG7ctzgmuljMvQB6wll/etIDWnz8hL456GRQwvVerRBm2zlsJEX0JPkc+VF5IYBH6b4teNKFVX6pavGSuGnN34nnucrI3hD2kofjAcsl3m/egWUy8DhVrUhEXxuzQ6BgueXTFDzRuw3wZX/MG4eyBPJPTb9ILG+eIVa0FvETPN4iR5/Ql+Bb5uFFLs661rPsokXruSDp7nEhJ5Hutf+gAJOoaXpvW9h5Lo+o0527dsoJNL09cDx0KvnaPr/qJei/7mtadP84MsF7gIoT0DI9Rlct7NDmR+iz9xjJnbQc8Tymu1xFsNGVw+X0FPkM+NAjmKZd0e5pqczfhiHhCAu5C8Fs1pC0w+4DhBUfNi/tgyU6JGUBluGGckQ6NhuWWb25bTm3nT6a4M4dkuEfvHkfAsz1esyn9pdGDMj6J/jKvREQtnEhNpIPJlzTrhJ+OBlRrJJ98BT5DvjohZWlKmwGsn5TWJYKFBJmUxJJn+pEdsjxRE5mFJLqAo2pG8wys+YBEJXBGPJBuNuf14MLPaMKeBDqTds1t0iEdOD30qVKfNvX9E33MKsX/NelIP7QfTD91HCxTg1qkcQc3Mm7T2HVzKPX2Lc206oaWk6lAX4Hx5OM6wvqIb9oPFJcoLSKgIlVlfn9oK0XN+ZieWz9b5kS1gMFcWLvOgFkKLYaq/DJZsh24dol6cvf6ZPzPrNddEqnlLvDCVA0uRUu7j6RvHhwoBoBaL4zpstjwOrSg21M0td0jFOQXYL3LfUC67U48RyvOHM5BPtQp8oPLv/05o2Ao+VAJQQEBNL3jEJmkB7SIB5y+fo2GrJ5OL26cR1dupXFFoujaRMC3ziTT3bPa+SEGy4ub5lOnhZ/T9stnpOGcpWkPkA4ezRNa9WFpN5aalq6Uo2yKFPDARre45aE/07gGbWQ9B0riLlFw9ezju3XLWql4CS6De89xr2C45HuYKxxTZIB9haHicaw8e5jaLZhMC0/+IZXrKWjlB1+/b1m6tl8wRX5jKAXX6TWmFjCkgfFJGE2LWaINj4hiC9ri9KCXjvoeTguvRXahNT2fpc5cL0JCNwm4+PQBMYq07oO0h9HkCzCMfKiY8KBQeiOyaw5pAOA8qm7thWNiWaIy3SFAboAcY+Z9QuOs0tUdSHmtR5sK1Smh12jR69DYinS21+Cwh7oOB1bD/cw9wvSOj1Pl4qHWK1zD9fRbtPXSaetf2YGIW/CW8QUYRj7Q6J3o7iIhUNm2kMbhn+VnDopjgCv6m6cAY0brZXAI5hGursc6K1bN/dJpqLxY0OtUOopsiN0CPRLSR4+EAO5Dd9y+Qg1axVLw31HdhDR612cD3xd//iiKlQ1IEzrm03VbuJbOPYYh5AOx4PHbJswSM0UL8MgA8Tzt8u5poGSViofQK00709JuI6kDd5UwGmzLjIZGFKs1TIhBLMXRpb++LU5i/IECjglYmMoUCaJn6rakJZz+4JpNqYTyVtYBct555SwStnxhB8zk+AIMIV8AZ/s1W30Y+LQHKhWzB29tX8EN5rurslBOzKX2qdpAhk5ebNROvI5tDRNcAwmHmYeh8dOpz7JvKeH8MbrJz/fp3vWygu6bQ1tkKMchmYSEhcR4+aT1Q7Suz3MyMoDFSnpA5IV0Hd0OUtkX6tXr5MMjVy9RiqLKVubPdxvKFu/sXEWrzh3mc9YvfAR3CZJJ7SvWpNW9npVwHJB0qEhb0qlrX92yVPTIZacOZpfy/BHS8K+bFtKDC6dIcEl139187gJpCwm5Kw8PCpFZoJ9YHwwNZClovcYWWHAOFzR7IA14fGPM0Wh4vQSokLasx9g2lgIq/VxaMv14eJtmhRoNlKleaDn6LOZhWbbYsGRY1mo5HIo4kNwzju4UX8JP962ny2y82D+rAhxeMS8MFWPEmp9p79ULDrtiAGlhKrBLpQja9tAL9M8mnWSw3PYevNiWEmeHo3S9Da+TD75xzzdoo6nroVq+OrBZvH59BYpQiFwK9/k4ljiP1mictV7EnlRYkN5z6dc0eu0s2pd00fqtPlQaICxmbDou/IzGsz6ohkr0yKLyhfWKCAkJPUdTbOU6YlAA8Aqy+BPmBBwRkJ/R8Cr5UJGRpStqhpLAOViakBR6Roi3oUoBJX9Nr9E0tl5rp84HaPR6JctZJc9dkjiDShN62oQ9a6k9k/Drg1uka8a8shYJ1T04KhUPpR/bD6LfOg+XKTSoAv6F/KxXZgfmf30BXpd8jZh8Wp4VqNwVZw9RSnreF/rkGVwWUKZ1+WoyzjaxdV+qWaJ0NmMCYLlk/WQBzsGKn9CyL/3aeagMk8jVGsRxCL4J/ogvbJhDA1f+KE4McA/DmhA9IG+oADFh1ejXTkPpzaiu/J31pB12XdGelvQ2vEo+TDc1Kmlx+bYHKm/tuWPcwF5/H3IAg7r/ad6T5nUdQd3C0ZVl1+vwHPBcPpR0mVL5ZcHfSjLhGpAUszbwD/wkpp/M62pJLmdAvojFMnDFj/TMull0KPlKljePFlTewQGB1Kp81Szpq6DKvuqsbxhzXm1pPG/dUEscOy2gcu3qy8soJG5OK3s+K5FMURRFOgCNhx84GAxc8QO1WfApDVj+Hf0hRkJOAuKugdUfoJU9nqE3I7tScTedBpCOotnsY7tlnvk/u1YJ8aUs1vzsYcn/7gC3LRLZ+Nkisx+GVrTAq+TDiD+GWewrBZUIBXhPorHdAUo1rlFbGdS1n53AcTr1Gr2+NY6Ngs9lvA7+fBsvnqTOi7+gV35fQkf45bElBe5HOhjPfL5hG1rWYxQ9Ur0RV/pdy9gVqHJgFd57O1fLOuRfj+3KGh90NR3gbFoyFbYGvzQaXpd8egF0MCiq5wbuLaCR1QGohoV1GM8qQcv5k2jivnVZzgYAfmP6b/L+jTJzsfT0QZmVsSWFpMm/MUzzRdtHaG3vMeLICmvUHeIASAsBI0eu+YX6xH0jMWgQdNyVdHCvLCL3AakHeJV8xfwDZbWVFs7dSOEq8Y1KUcRBc/6RdJFaz0P3+q1M2OuVEN+nMikHr/pJ/A0hEXG/SksIyAcAp87l3UfRl0xE5bWCw1UgHT+uR3Sf8PYZFj9DCG+re2ohKx838rqX8Cr5MBCqN4wCyWc091TjoBERaGfwymkUu/hL8VwWO1On7LbgFOjyzeuiCz7GeuGeq+ezSCENzwB5gtgo6Gv1ah7XsJ2sznMXSAdDMYtPHeCueDL9cGibDOKrfLQAa3hIrWayWs9oeJV84p2i89AS2kvvpBeBl+A/u1ZTF9bjMOWV22gHCMUWx1Zl7KIvaPz2OM2Bc0yVYXXeq0070cJuT1HXShES1dQRefRwIiWJXtwwV/b7wCyRVhogKwbLP2rVRxaaGw2vkg+6Er+X1r/uAhVVJbik4W8jyoEpsf/uXMWkY2Xe+n1ecJ1J+PGetSKZIKXsAUKgN0AkU6znmBc7wjIIz+fcIiHfkMHH3BP76GGWuHiJ9AiIWRCsl4GDq5HwruTjBk1l3cQeqBBYmCHcLRsKbjwMY3CBrF/kHXg2pJeGxeTW7+yhCIgARNFlK0ugyXeie4ivo1sEBDgThEbrG/ctnbmexF2+9sA0Il2NYwvc7fQ9CK+SD+5F4sNm98CofExLNSwVZv2m4MFepUAd2C//RD2AoBiaeaZuC/q97/P0VJ1o2aPDXey7eoEt4pkygqBV3yD70IhICg1w7Bt4L+FV8kHxPppy1fpXdqBC8DYaVA+GAGN1/9sdL/59ioRCQD6AskWLS5yadb3HigcNqsYVoqg0YHEjUpaeFVypWAi93izWpTTvBbxKPoy6Y6cfPb0Pu0JCRrgMvUrj77Xy8DXAieCtbctlfPAXJiIGrRVRFIFwIEIXHBu+bPOwDNM4CwOSBebwdwe3yIIipGsLlfagGg9QuJtrRDwFL5OvkCxD1NJ9UBEIXaE3DmgPVCUMGC0gLeyBgX3SfB5cVuz19vSaX+ixlT/S5ksnrZ4sd8mC5wEGVG9Iy1kffIF1tRCdwXp73OZ03t6+XBaU20s4pAs9E46xRgQR8ir5gE3cFUD51qoIeIRgKaUrQgvNsYTfaDRUjrT4GBbRjHb2H0c9K9cV686FJA0Dnh2Dxpjw77LwS/rLxvniXmbrSoVr0HNA/3ujaRf6nKWgq9jDBghmXuzrCfDnfAfXaCL5exteJx82tZvyx4Yc3QCAb/7WpAO/1a4NuGIudfS6WZYhHE7PtqHgEQIjBlEAsPCmZdkqPjGw6hBcbn+/wvTjke3Uau4k+nDP2hyhLyxELSxezAOrN3bppSrE17+xdRnrltovfeuwauKD6G14nXyYVJ93Yh9XWs5qg8SqyvpHf5Z+Wm+pFn47vlccL+ed2Jvl7QGgUnFgLCuyTDj91uUJ+rRNP4ooUcbltI3EhRspNJ4J8xZ3mVrlhQpT10XCoF4RGH2Hjh8fegaEGvY2vE4+4OC1S4QoUlpvIbqWf0XHUkRIGeu3zoEtBYbF/0x9476RqS01xYTDkiYWzQTQY9y9rOr1LL0a2UU8kn0aXGaU/crNNMrk31rwK+Ro/Vp2oA7mnNhj/SsnGpUKk6Efb8Lr5EOFoisZmfCL7pLB4v5F6O3o7nRTQzfUAxoBE+1Nf/tIgvpgoh1Q9yNfAO7liIWS0HsMtQ2r7nLjGQV4rOjBnbIjFb0oBkxzquXGy+4pGCL5QAR4Le+6ej5H94tzqNTOFSPo49Z9xTXcFQLKfULsdNljDT5vH+xeIxECcD8OdQ2kQI3g0jKv6uuA3uqJFwRpYIBfRUqwBeqkGtcFdElvwhDyAXjg8VvjsulpCjgHPQQW6+j6rWT4xRUCKuB+rCJ7e8dK6rr4Kwk0pIYvbEmoDlsgF3fycgWSnl0+rkLLMMstzqWl0LVbFl9De2As0dtreQ0jHxpj/cXjbPlu1GxwkAKke71pZ/p3dDf+xv1GgFTdl3SeBq2cJn52WB+LwWd9chWisfVbW5ZFekTeIEW2YPk5noiIlBfKXcjCIetnTwA7E9m/cADKGBx4b3fKtIdx5GPgrf5k3zrxeQO0CIhKwfbxP3ccSrWhl+SiJTCTsPLMIeqy6HN6k6XtaeuEe478+MDWoQtin6I+VerlWepkZGRSz8p1aF7X4fR2VHcxptyFLEq3fvYETjuI0F8ywLuOHYaSD+TCVu29ln6lu18GroGO1iW8Nq3p9RwNqtVERvdBHH0JpgFO4xrrfx/vXUvtF2BoZp+uuzs22vv6wUdpdqeh1KhkmHznal5yHf+rG1KWfuo4iL5r/5iso0UaWhLHOTwr+TCjoYdbd7y7kNxQ8gFokOT0WzQfgR91GlgRMJArbmKrvrS420hqXLqinHOVFIAiAIZjnkr4lWIXf0E7rpyVxkU6OFRe+OlQKYKWdn9a9lzDUI26RgvqHFQFbKuwvOcz1L1yPUlH0uMjN9AL9pNbVC9RWvcZEm8hiLr3YDj5ADQL9lRz1kA4j24YC3GWMSm+aveoDBE4IoUWkA661P1Jl6j7kqn03LpZdIA/a5EQ+t+TdaJpR/8XaAT/DraTuuozPISH1IqkXf1folF1m1uCB/H96pls73EHjiSVu0BKMCy06hmjAjfvN8kHQDpUdnPYAxu19K/WkOJ7jqY/1Y8R9yN3gUaAa//0IztlewPon5CKioTqGjQVIox+wBJwXpfhEmELQyAgMMjRlKXwXNbrIJXDimXffxfp4DrM1bpPPUvdOH4lXQfqCC+TFq7ctMwlexM+Qb4M/qkWXMr6l3MIIayNi5mKN6NiaUOfsdS3agNLABw3JIxK6zaX4fWty6jxzA/EYSEHAa1HU9YH58eOkD1+4d6E6PILWQ2AB7LtdYBIO/69+twRipkzMVfBeaCH5Ya0WsD8rd4GgXB1K/AzHFpoX7GWZXjDrlIAaUAdMqmGxhAG3PA/i+kvTgTR5So7DCuhB1wN16Phq3+W3YV+v3w6x1QdjqKF/akT64PxPZ+lHqzXFbOWHYekw9ci/x2J56hf3Lc0aMU0SmYJm/PpnMNTA78oWxNEw7eW0RYo75Hky7jI+o13YDj5IBuiy4RrNgwq5X+74mnV2SMsARxPtaFSsQYWfnxzOg+X2ZFqWJRkPe8yOJ30zDuykV6PJV/RSxvnyfgg8lb5Iy/RB1nqZtPr+Ad+cUdSrtA/tiymrou+oDUSiZTLzj+5AQZaPEEJ7CnSLby2Zh3iG+i8eBZvwnjJx0+OCFBalQLpge0PsAZ2ePzPlHzb8cJoIQVLCsQAHBYRRQm9n5NYgLlqd24HBG787tBW2VFy2pEdusmgPNCXICWx5SmGcj77Y2NWN6slbVzFHRkWzxuQO8KUtNCJxYzyIfyHt2E4+fDgehZYOlc9wrui8kHCJrMn0Ls7Vor/HhrcEQmRWrB/oGwHv6InYqQ0tpx0ESptBPtG1Pz+1RrkkEC2ZcBQESTdy5sWUkq6JYi51jPlBnlNBS/sy43bs3GUU7VB+TH9iD15PVVeV2E4+aCvBftrT+vcyUAAIVaC+RpItES2RLEgBtGa5pzYayGmtfHtYdv42PnnszYDaGrbR2SdiC1ptIBzWEH2dJ3mtIat6SdqNWPDJruDq6TBPztZrxuZ8CvriTNo+5Wz2fL1BMSxwvo5N8BjPlCqguxupFUqOBr8cnSnENTbMJx8eGgo+VqweCOjiJaKUQ2LfSxGcDfcP+578Q20BE7UJpS6B/oMhmYWxj5Jb0V1EyvZ/h75zEdM+WoU32uMbHFfmg0ZlQYOXIMywy3sjW1xssh81rHd8oLgvKeBrju3qVqeL4P+0aST6MP25cN5uGyt5S7X8yV3Dh8gH9G1m9pbNWEMDUq91quPitx48QR1WvQ5vbRpnuzNBkmklY4C7gGhx9RrRev7jKVRdVtYnQgsDYGoATM6DqGZnZ+gykEhIm1Vg+E8jIkbLG2/ObiFYuZ9ShP3rJMZjXtBOgXMB+s/kXNgw5fO4RGaZYRO/cneDXQyNemePoMeDCcfFlYcT9X2tIClB2NED7gHkUG/P8hGwcLP6MsDm2WQWMtpQAH3QArCl+/d6B7iRNChQg16LbKzTNthbYT9sA/SggUczxKiX9x3YgGfvJ7EiVkvuIeAN19us2lerjL9vUkHTVcpPBMCIL2/a5U3HkMThpMPVZtw4bj1r+wAARCW1iH4GtAMsUn+tnkRRf42gfWw85pxURSQriJhszKVWNINk0hR6IrtpR0s2AucNrYq6B/3LW26dCrrvDvILYUw+O2u5EO5sYEgYr+UKVI8R3lxHqrDdNb1EEuGL7Ce8S6Ml3yMpacOyjQXKsUemMrCvKnWOVuoCkZUqW6Lv6CHl38vkUTRVeJerftxjzqyjdfxtWgc6Fuvbl1CLedOpGWnD7rdSJInH5iKe61ZZ+ny3UVuDIHW5atKKF7s1aY1dodyYa3whN0J1m+MgU+QL50NjvNpyda/sgPdY+1Q99YX3LqTIeNWLedNote2LRN9ENAioC1wHgf0ummHt1EMGxOT922QPTHcBfRPkO6xmk3YeBnNlnMLTSI4Q4CLi4RQbowc9GOjCluLYQ201n24DgbauA1zxZlAvXBGwCfIl8nVBCllD1QMQsd2r1zX+o2L4PrEvRhvm7R3nRglGE5Q0hWHPfAdLD+Md/Vb/h39af0cOpx8RdJRhytAOriyQWh5Wtx9JH0a00+28AdcTcMWILFD4Fn4gFU+JWYAfdFmAIUVDZZT9vmhbJDmiBe4+dJpZynfc/gI+TJlX109YIwKb7W7laVIgzjEo9fNFvep+HNH5ZwiIQ50zdDrxqydLWFmN13MnV6HtDAeOLH1Q7Sk29MUKTuLa5MXzyLzz06eShb8WD/bA+fgZ/hK007SzT5cHfVk0Vlz5Gd91vkn99FEfiHVC2okCp27fi2z3sz3rX8aBzgGIERsqcBi2SoFFQal/6VN8+n7Q1vzXGGwZPtVbUjDazej6sGlJdj3zOO76duDW8SbGqm7nQeXEbEFn63XSkKalWddS5FOC0J4Pl7ZsoSm7N8oeWoB1w2vHUUftuzNXXZ2OYFzGOOEJat2dHKW34yjO+gF7m4Rv8UX4DPkgxSY2u5R2SrAvhJReViN1m7+ZEpmPSWvQOqwhkF46D1oDOThLulwD/S69mHV6c2obuJiZWu46OEO530kJZF6L/1aJK4ekP6LbIW/Gtk5h76IcwqO8sN16Gox/Yf94PDc7j7nvYJPdLsAXId+OaY/zYNB39ebdZVxr7y+t7gfEgNrOJQUcKdB0KDoqrGdAba5mtZxCNV3Qjx1D/zzFrPl3H3xVKcbHKJLrl5C2zMH+ahDDxbiZdCEvWvpmbUzfYp4gM+QD4jjRtlw4UQOAqLC0O08GRFFParUQ61az+QeuW0ENGgVtsDfiu4m6zvahtUQowjBePTSxD3AugvHaXj8DBq88kcZDHdaBr7N0SC7HhTRsVPSGNZ1/7VtuVi4vkQ8wGe6XQCV1qxMOC2IfVLTuRTnscg8dsmXEvbLm5UJ+iCEbLfwuqKDwW0LuTsqgyLdqdQk2VH8/V2r+XrX33ekvHfASxJn0NmzqrwA1BG21B+VMJOl+w1Ox7kqYAR8SvKhgrZdOSMRpzTX1fJ5zEL81GEwlWGlXs7bXeNJIH111A0pQ6t6PkuTY/pZZkK4LHoNqu6BnTr5jw3UYu4kJl48X+96deP+ykElZT9dR1B5qc8IG4ftuIas+kn0Y/QYvkg8wKckH4AKxDjV3K4jZJE4prvsgW75IutLz7PltvT0AYtO5OEKVg2KIOV/e6ADxYbXkUVLjhpSEQHLHRewgg/C/XHtoq4e6xB8DwwweOLY56nKhv+RNgbosWfIT4d30LbLp31Ot9ODz5FPwBXak3W7qW0fpSJ+2g2OBsAwybs7V8kwyfU7sII9VOGcdll+AUbUjqKx9WMoJLCIpOyMeBikPsqS57Wty+SlyAXlslCRu9qNfceKr6N9viAc8kGUV0z7YZ9irI4DkGd+IB7gk+Rj+SFRRJ+s05z+E93DotDrEBCKNLqa4fHTae/VC3nSbzgXSmMdaTjnOz4qlsoEWnz5AL00UQaQAY6tWP32w+FtDp0aXMXI2tGy56/WAiLM1DSc+QElpiPGoaUM+YVwtvBNyWdFAOsrCOQ4tl4rqVytCkbF422Ha9WGiyfoe1bssQsPrsT1IIbefZImf8YgdoViwbI4HMsvsSUDFqc7mouVfPkA0SbuXUs/Ht4u0khLTXAHSLNByTC2pEfKfmz2ZYcuPPmPjfSPzYvynJfR8GnyAZB6CFeBcGmKUPZAgyngE+LQLTq5X/bv3c8618mUJFl8hAFlTD9hCgwDzLVKlKY6oeXECwSBIjE/ivv18lFQ+WGLAWxthSEUdbWj+1wCp/0+W9MjIqKZXDnTSr51k1rN+0SCHeU5L4Ph8+QDUMWvNOlE4xq2lW4Ije8KORRgAGAGxTLWZVk3Am8RLcnmSrqXb1ynP2+cK0aFyB4H97gKlfbjEZE0qWVfKYd9WTB2t/DUftkN05914fyOfCG30XX+e+dK+vOGOZatURn2BLOFajh1YAoM43LBAYHSlWEyHiS2vw6HPZCPOjBm9ua2ZRQ9b6KQQMircU9ugPSxHek7Ud01y4LzmI35cE+CxxaSG4188RRoCBAQa2exUcrqc0dlDE2R4l5BpZ3CXTa2qoqZP5k+4m726s20rG7WE4Ae16BUGH3Sup+Ef9N6CfD8iCWzJZee1L6IfPcKIeg33NnHb1sukdq1Ygx7EvB0eWT5DzIpj8CKWlIpT+CiNy9blX7rMizLO8UW6gWDYfPF/o3WbwsG8h35pHH4QJBHeCr/la0+eLwgugB0Ik8TsTh31S3ZIPFkqlJG/od1c2Pqt6JZnYdKFCwt4gFYpjlg+fd09nqyZ4lvMPKFweEQ3D5Bfv7UMTxCts5qVjZcGlLWqeL83f+yukppUhuS6jWoanx4hmAgd/z25XTg6kXKU9woThNTXli49FKjdrLfnHIAtQfyhzsUdj7/cNcaytQuZr5F/icfQ5EE/3MnJaFsW5WrSkMjmlHl4qFi3aLBLd7QGBS2eAFjsHbDheNUKShE4pg4IgEAEi5mQ2PcxnkybIOtSl0F0sALUSqwKL3XvBf1qFI325JGrXyh503dv4ml+0LZCKaAca9gkM8eMrDMv2EVwtJFI2O8EL9hqOA8iHSTyQcSBhbyow9b9aFBNZvI/c4kIdaGwFNl65Uz9P7uNeK6pHCXInwt/vGfWL74fIMYiRKFIJh6RoWCyieOpS3CtRm90OdeoUCSz12gsbGb4/hmsfRk7WhpaFfIgStAYuxrduVWGiXxkYjoC/wDlzDEe6kUFCqBkOCUYLnLAkcExxzx5H3rpZvH2GRBhUk+K9Dofmx/Pd8whl5u/KDMgrgjbRQhteBKOrgfKUAav71jhYTiwG3ulCG/oWCMVnoAaOSMQpn00d4E6s+WJYKFY62FkMIF6YP79Q5nUMTDfiR9ln1Dn7LUw9SaK/fmZ5iSTwMgA+Z+n6vfWtyqSnL3CY8XwJOEUKTDWg6M4X3JxgW2hchSGws4TPLpAMRg2UPVSpSifzbpJI4H5YsFCy/ySkAhHR+IpACnhH+xbodIUY68aAoiTPK5AFAC7uzY2fvpei1lUY8tTZyREURTgHWN+Mcf7UkQz5vUO9glPaPAd7FaMMnnBjIyMikoIEDIh1VrCGSOWMcYJ0TXjCj1ikSYDoP7E1y5Lt9IpZ1XztHvl07JcYKt4xt8Hlfej6RTMMnnBqQrtpJFSTP8hfFEDFD787lKxUPFvR/OBxgmwZiicoJQuJ8JZwvT2nUDtqTBZ/mbD5AMkg6x7rBtAgwIzH5gvA7Es73eNo37HSb5TBgGk3wmDINJPhOGwSSfCcNgks+EYTDJZ8IwmOQzYRhM8pkwDCb5TBgGk3wmDINJPhOGwSSfCcNgks+EYTDJZ8IwmOQzYRhM8pkwDCb5TBgEov8HUbx2WXSYV2EAAAAASUVORK5CYII=;" parent="WIyWlLk6GJQsqaUBKTNV-1" vertex="1">
          <mxGeometry x="340.5" y="610" width="69" height="64.23" as="geometry" />
        </mxCell>
        <mxCell id="oaHKMSnmFTuaICTkoKeT-15" value="Data" style="endArrow=classic;html=1;rounded=0;entryX=0;entryY=0.5;entryDx=0;entryDy=0;strokeWidth=3;fontSize=14;exitX=1;exitY=0.5;exitDx=0;exitDy=0;" parent="WIyWlLk6GJQsqaUBKTNV-1" source="WIyWlLk6GJQsqaUBKTNV-3" target="oaHKMSnmFTuaICTkoKeT-2" edge="1">
          <mxGeometry width="50" height="50" relative="1" as="geometry">
            <mxPoint x="170" y="140" as="sourcePoint" />
            <mxPoint x="410" y="360" as="targetPoint" />
          </mxGeometry>
        </mxCell>
        <mxCell id="oaHKMSnmFTuaICTkoKeT-17" value="Vector" style="endArrow=classic;html=1;rounded=0;entryX=0;entryY=0.5;entryDx=0;entryDy=0;strokeWidth=3;fontSize=14;exitX=1;exitY=0.5;exitDx=0;exitDy=0;" parent="WIyWlLk6GJQsqaUBKTNV-1" source="oaHKMSnmFTuaICTkoKeT-2" target="oaHKMSnmFTuaICTkoKeT-3" edge="1">
          <mxGeometry width="50" height="50" relative="1" as="geometry">
            <mxPoint x="380" y="90" as="sourcePoint" />
            <mxPoint x="230" y="185" as="targetPoint" />
          </mxGeometry>
        </mxCell>
        <mxCell id="oaHKMSnmFTuaICTkoKeT-20" value="Question" style="endArrow=classic;html=1;rounded=0;entryX=0;entryY=0.25;entryDx=0;entryDy=0;strokeWidth=3;fontSize=14;exitX=1;exitY=0.25;exitDx=0;exitDy=0;" parent="WIyWlLk6GJQsqaUBKTNV-1" source="oaHKMSnmFTuaICTkoKeT-9" target="oaHKMSnmFTuaICTkoKeT-8" edge="1">
          <mxGeometry width="50" height="50" relative="1" as="geometry">
            <mxPoint x="200" y="550" as="sourcePoint" />
            <mxPoint x="410" y="360" as="targetPoint" />
          </mxGeometry>
        </mxCell>
        <mxCell id="oaHKMSnmFTuaICTkoKeT-21" value="Question" style="endArrow=classic;html=1;rounded=0;entryX=0.5;entryY=1;entryDx=0;entryDy=0;strokeWidth=3;fontSize=14;exitX=0.25;exitY=0;exitDx=0;exitDy=0;" parent="WIyWlLk6GJQsqaUBKTNV-1" source="oaHKMSnmFTuaICTkoKeT-8" target="oaHKMSnmFTuaICTkoKeT-10" edge="1">
          <mxGeometry width="50" height="50" relative="1" as="geometry">
            <mxPoint x="150" y="585" as="sourcePoint" />
            <mxPoint x="330" y="585" as="targetPoint" />
          </mxGeometry>
        </mxCell>
        <mxCell id="oaHKMSnmFTuaICTkoKeT-22" value="Question" style="endArrow=classic;html=1;rounded=0;entryX=0.5;entryY=1;entryDx=0;entryDy=0;strokeWidth=3;fontSize=14;exitX=0.75;exitY=0;exitDx=0;exitDy=0;" parent="WIyWlLk6GJQsqaUBKTNV-1" source="oaHKMSnmFTuaICTkoKeT-8" target="oaHKMSnmFTuaICTkoKeT-11" edge="1">
          <mxGeometry width="50" height="50" relative="1" as="geometry">
            <mxPoint x="160" y="595" as="sourcePoint" />
            <mxPoint x="340" y="595" as="targetPoint" />
          </mxGeometry>
        </mxCell>
        <mxCell id="oaHKMSnmFTuaICTkoKeT-23" value="Question" style="endArrow=classic;html=1;rounded=0;strokeWidth=3;fontSize=14;exitX=0.5;exitY=0;exitDx=0;exitDy=0;" parent="WIyWlLk6GJQsqaUBKTNV-1" source="oaHKMSnmFTuaICTkoKeT-10" target="oaHKMSnmFTuaICTkoKeT-2" edge="1">
          <mxGeometry width="50" height="50" relative="1" as="geometry">
            <mxPoint x="170" y="605" as="sourcePoint" />
            <mxPoint x="350" y="605" as="targetPoint" />
          </mxGeometry>
        </mxCell>
        <mxCell id="oaHKMSnmFTuaICTkoKeT-24" value="Similarity Search Result" style="endArrow=classic;html=1;rounded=0;entryX=0;entryY=0.5;entryDx=0;entryDy=0;strokeWidth=3;fontSize=13;exitX=1;exitY=0.5;exitDx=0;exitDy=0;verticalAlign=middle;labelBackgroundColor=default;" parent="WIyWlLk6GJQsqaUBKTNV-1" source="oaHKMSnmFTuaICTkoKeT-3" target="oaHKMSnmFTuaICTkoKeT-7" edge="1">
          <mxGeometry x="-0.0038" width="50" height="50" relative="1" as="geometry">
            <mxPoint x="210" y="615" as="sourcePoint" />
            <mxPoint x="390" y="615" as="targetPoint" />
            <mxPoint as="offset" />
          </mxGeometry>
        </mxCell>
        <mxCell id="oaHKMSnmFTuaICTkoKeT-26" value="RAG Result" style="endArrow=classic;html=1;rounded=0;entryX=1;entryY=0.75;entryDx=0;entryDy=0;strokeWidth=3;fontSize=14;exitX=0.5;exitY=1;exitDx=0;exitDy=0;edgeStyle=orthogonalEdgeStyle;" parent="WIyWlLk6GJQsqaUBKTNV-1" source="oaHKMSnmFTuaICTkoKeT-7" target="oaHKMSnmFTuaICTkoKeT-8" edge="1">
          <mxGeometry width="50" height="50" relative="1" as="geometry">
            <mxPoint x="150" y="585" as="sourcePoint" />
            <mxPoint x="330" y="585" as="targetPoint" />
          </mxGeometry>
        </mxCell>
        <mxCell id="oaHKMSnmFTuaICTkoKeT-27" value="Wait time Result" style="endArrow=classic;html=1;rounded=0;entryX=1;entryY=0.25;entryDx=0;entryDy=0;strokeWidth=3;fontSize=14;exitX=1;exitY=0.5;exitDx=0;exitDy=0;edgeStyle=orthogonalEdgeStyle;" parent="WIyWlLk6GJQsqaUBKTNV-1" source="oaHKMSnmFTuaICTkoKeT-11" target="oaHKMSnmFTuaICTkoKeT-8" edge="1">
          <mxGeometry width="50" height="50" relative="1" as="geometry">
            <mxPoint x="766" y="240" as="sourcePoint" />
            <mxPoint x="440" y="613" as="targetPoint" />
            <Array as="points">
              <mxPoint x="600" y="375" />
              <mxPoint x="600" y="548" />
            </Array>
          </mxGeometry>
        </mxCell>
        <mxCell id="oaHKMSnmFTuaICTkoKeT-28" value="Answer" style="endArrow=classic;html=1;rounded=0;entryX=1;entryY=0.75;entryDx=0;entryDy=0;strokeWidth=3;fontSize=14;exitX=0;exitY=0.75;exitDx=0;exitDy=0;" parent="WIyWlLk6GJQsqaUBKTNV-1" source="oaHKMSnmFTuaICTkoKeT-8" target="oaHKMSnmFTuaICTkoKeT-9" edge="1">
          <mxGeometry width="50" height="50" relative="1" as="geometry">
            <mxPoint x="150" y="558" as="sourcePoint" />
            <mxPoint x="330" y="558" as="targetPoint" />
          </mxGeometry>
        </mxCell>
        <mxCell id="rgUeO1YCHz0FVeaHEKww-0" value="" style="shape=image;verticalLabelPosition=bottom;labelBackgroundColor=default;verticalAlign=top;aspect=fixed;imageAspect=0;image=data:image/png,iVBORw0KGgoAAAANSUhEUgAAAIsAAACECAYAAACgT9gqAAAAAXNSR0IArs4c6QAAAARnQU1BAACxjwv8YQUAAAAJcEhZcwAADsMAAA7DAcdvqGQAACXlSURBVHhe7Z0JnBTVtcbPDDuyiSCI+lhkiQJqxCgqUVDhCW6oRH2JgFsI7iviQgIaxBg0aqJiMIKASdBgBNRIREQWcUGiyCYgsogEZJUdBmbe/Z+aM9QU1cz0dHVPD/THr+iequp7zz3fufeeu2ft2LEjTzLIoBjIzv/MIIMikTGWDIqNjLFkUGxkjCWDYiNjLBkUGxljyaDYyBhLBsXGQW8seXl5eu3duzf/jofc3Nz97iUCwiJMP7hn8R8MOKg75SAvKyur4Hu5cuUKiOM+97Kzs/Xerl27ZPfu3ZKTk6PXnj173H19tQAEVb58ealQoYJeFStWlEqVKu0XlvdulhoL9wD37XtZxSFjLIDvO3fulO3bt8u2bdtk0aJFsnLld7JmzRpZu3adbNq0UX74YbN7Z3u+sRRWDb/HWCpXrio1a9aQWrUOl7p160i9evXkmGOOlubNm8thhx0mVatWde9ULvT7jLGUEZDDlyz5Rj76aIZ88cUXMmPGDGcca51R7HKlyF5X4kBillSsUNGRmusuj1xgxub/m1tZWdmyO2c3T1z4ua6kKecMpJIznrpy5plnysknnyxnnHGmHHdcEy3RDgaUaWPBCCCPHGvVAJ8uTbJlyxaZNetzmTJlirz++hhXeqx2v3AGUbGyy/1VC4wgamBU27Ztd1XaTv5ypU59ueKKbnLOOedImzY/lurVq0uVKlX2k5nfpbtRlWljsdwO8DmWL18hc+bMlg8/nCFz585z3+e66iTH5fgqBf6KXV4JEa3BBMPmwqB37tzhqq8K0rp1K2nVqqWcddaZ7vtJ0rDh/6jPY4hanqhRZo3F/JGtW7fKZ599JhMnvqfVzMqVq1ypstk9y1YH1HItOZhPwO+M1ChhYfrjMTmJHweaaq569RrOx2mg1VTHjufLqaeeKtWqVdPf8V66okyXLFOnTpWhQ4fK++9P9pScV06cjSg5/MuTwk1ZYORxJQMQHot0ZzJOpvzSDdGyvOb2ued2kF69esnZZ5/tvZimSGtjoQi3etxfkuCkPv744/LBBx+4YhwfpJo+DyPIn8v5B2UGJY1/uR6BlEburvdutve+GVXwXcKhlAh710P++774gzCZt23b6qrRndK+fXvp27evOsfBksavi9JCWhsLzVfzNWjuzpw50zmr/5R33nlHnUjqe39JYcQE4b9PmLm5XmcZv6FKqFGjhvs8TJu9FStWUuOrXr2aVmNcgCqEa8uWrUru7t27tPm9Zcs22bx5s1Z9FmZ2djltYhvCDAWYzFwYBX4Xznfnzp2dU3y5/OQnP9FmOO9hLP4wSwNpbSwYAkpauHChDBs2XN5999+ybt16Z0DlC5Uiscgw8mja7tixTQ2vYcNG0qhRQ2nSpLE0btxY6tevry2WI46onW8sFbXDjXf59IPOOuThE8PBWNav36AtrdWrV8vSpUvlm2+WyrJly52zvUzfrVLlMBeW5y8dSE6Dl+Y9UqfOEdKp0//K9ddfJy1atFB5wkrOVCKtjQVSxo4dJ4MH/16+++47p+wKTmFekQ/CfBIDSt+1a7czkq1y5JH15OKLL5EuXTqroWAgVmr4CYyXDOIwQLiVPhgOBvOvf70jb745Xr7/fo0zmmquJKx4wDjwaQDVV65Wdzly9NFHS58+90nXrpfuZ7ypRloYC0q3ophP/kbh/fr9WsaPH++K4sP0vaCiec9+gxGp0+iwN3ePM4QK0q1bN7nooou0OKdvI1bOThaQy+lXq8+33npLxowZ44wpR8ple9UJLhJGgVyWFj/MGLdv3yaXXHKJDBz4WzV03rPf8Bn8XbJQqsZiCrJEo1yK9rfffluGD39ZZs2aVWAo9jwMe/bQqtjjSpAj5YQTTpDzz+8oHTq0d7myQUE/RmnU+eZzAfyR775bJZMnfyDvvTdR5s+f70qc7136yzu5wh1Xf5oxmDZt2sh1110rF154oVaZ9tx0mGyjKXVjMZDwDRs2ygsvvCAjRozUHliIhmSexQJjPfXqHenq946qxFatWjn/4wj9jV/ZfBpxqYJfdpOFa/369TJ37lzNFO++O9H5PN/rWFIsmOwYHD3APXv2kN69e0vt2ocXpA8c1MbiV+YPP/wgvXr9SqZPm+7qZkZyvbobmJL9ysA32LVrh6tmLpa7775LB/FoOQTfsxxHXKVhLMQZzPVWktLCYzDzD394ylVTb7rMUaWg9QXsvQKDc/+wjZycXdLup+1k6NA/S82aNfWZGVQykVJjCeY0QFFNv8kNN/zSOYUrpFatGno/DDiAhIFP0rJlS3nkkQE6aAdKwxgShV9mBjf79x+gwxT4NNw/kAO/adNm16JrJC+++Gftl8H5tUwFkmE8KTUWcgqJwFD45G96YR99dJAsWLDQJXh/n8KMCtC30aTJcXLllVe662da/VhYINnFcNQg/cDSQPX0t7+Nltdee801wZe4UmbfuJGl0Q9ai82bN5OHHnpIe4EJx8LiM2p9pLwaMgWRkHHjxsmgQYN0PCdWLiDR5MAdO7ZL9+7XyDXXdNfBOIprwvIrpKwaC7C0UL1SurzyyigZNeoV14qr6pUyIcaCbnifuTT9+j0kl156aSH9Ro2UV0OAhEycOEmuvbanJpgRWRLJ9yAY6qdF9NBDD8rVV1+tjiDvBZVHmGG/T2eQBr/BAEsbjvvo0aO11KUlxNSKIHiPLgNagww9vPzyCOnY8byCMMtcNWQ5xj7xUWgF3HTTzWokBwKOHE3hJ598Uk466aTIjSHo5yAj98it3rCAV20C4kZ+mt+UavyOvw3BsKIAcc+ePVvuuecebWrj+B8ITMcYMuR5bRUiZ1D3iSLpxkKCuVA2BNDPQB27atV/Q5XLe3TP45906nS+3H///erMkuAoyDB5TCbC3bhxo/z3v6tl3ry5rkpcqdeaNWtl69bNmmsBfSHVqtVwflJdV+wfo1fLlq3kqKPqy+GHH65kWJh2JQoMkHDnzZsnv/vd71wz+z31Y2z4IAjeb9DgKFcaPar9TBiMX6ZEkVRjgQgDwjLv5N5775PFixe5XMIUxsJRoxgSTG9rt25XaJOYPpOoEow8FgbxMI4zceK7Mn36dFm+fLkzmDVa5AOTzd4P/k3VeNRR9aRhw4bSrl07V/x30vEmM2jeTzQ3E4alHeeXJvaYMa9rrzDx+PULeC8nZ7c0a9Zcnnji9zpPxuQGicqTVGOxnAE2bdrkrP08Wb16jY6R+IkzkC5+c9ddd7hqqrf2m/AO73IlOjZC6wElYxi0OIYMGaK+QbnsCi6e7HyikclUAlneN09Uk9d7B1nxFfbmMhuvspP5Jm2pYUA8i0Je9McF6fTLDBnygjz11DMqa0B9+g7vMiZWv349V4pPklq1aukz9GeGXFKU69ev34D875HDErlx4yb51a96u5LlPzoEDzACnnmJ9lo8uU7pVDs333xTgaFwEU5JEkqYgDAAvcI4jTfffLNMmjTZ3ccHYXDSOcfOUfSMxH85cLuAlMLP+Y0nW3kXV65WE+PGvaGyN2vWrKBX1oydd+MBaVbZ8vWAr9SmzSla8k6bNsU92/ec8C2d/I5ScsGC+XLeeeerHIkaCkiqsWAMjPU899zzOmkaJfpBQnmHhO7YsVN+85t+0rNnT32P+5b4RGDhf/nll/LIIwN1KIG5MMER50RBWJDIioEZMz6SRYsW6xzbOnXqFDxPND7SgR9ywgnH6xwcjNPGlYKGyEqD5cuX6v1TTvlxJOlNqrHg0NKX8vTTz2jOCxMWMlHy7bffqsU4381QEk0c4TCewsi1S6d8+umnWgpYuImGHwaTe/78ec5oPlTnt0mTJkpyFOnhYsyM1iGdmHPmzCmornjmByXnvHnztR/mRz/6UcKlS2IeTxFg8RajxxT/YYoip0AmzixVj9XxvBtMeElANcTMOlpfK1ascEr2Fn4ZoVHDwiVe4iJO4kYGqxITgckO0BU6Q3foMCx83kX3cAAXiSLSksUEJlGUKnfddbfOk2Uphr9Otc89e3br7PZHHnlER1OxfJ5xBYvV4oB4uZCD+CCpb98HXDMcxzZ10xMsffgUOJv4R8cee4zmbuQy2HvFBTrx6wd9UcXQulyy5OtCpaaBd5i1x+Qx+l94jo6QI14dR16ymDDMcBs7dqzzP7z5KID7lhj6Uehww6GleRwFMBKLn6H/++673ynFa5FxL9UgTuJGBmRBJtNBFCUNQHfoEF2iU2A6sDTDAVzAicVfEkTadDbhqEevv/4G7ehCWX6yEJRSBwfs1VdH64QegKUnWqda6YVvcuutt8m3336r1YHBZEgV/KQwe//YY4+VZ5/9k5x22mkqS7w5OwgMzsJgothVV12tDrZ1xplO+eSiA3HYsJekdevW+pt4jSbSkgUB6TAaOXKkMxRvcNCvEJONQcEHH3zAFaGnFCSEKwqsW7dOnnrqKVm1apX2diKTKS7VIE6LH1mQCdmQMQr4dYcu0Sm6NVgmxSjgAk7gBo64Hy8iNRaE+uSTT2TChAnuu1dKmLIA803JYT16dNdBQRJDIrgS7cACKO2118bIlCnTXPyFkxZvLooCwTiRCdmQEVkTBToz/aFLdIpu0XGYMcAJ3MBRSfQRqbHQp4JTyfYV/hLFgIIaNz5OfvGLX2gTOQqYMRI2OXfcuLH6d1j8pQ3L6ciIrMhs8kcBdIpu0XGYMRI/3MARXMWLSDXK2A8LwOgVDVMAjt7VV1+ldWbUOR1FMG7CrLsoSqlkAdmQEVmjNmh0im7RMboOAk7gBo7gKl5E6uCyLufjjz/VFX2WiwwM+zOZetSokTrDjWcUn4mA3GNGxxgPi8bKl/d6KoPxpwOQy0oTug1YlGZDAtxL1HisNcgE8O7de+ikcHpuDRY/Kyrbtj1N1zXFg4Sk8xejTI+cOnW6VKtWveCePUdIJlc//PAA9chRSqKGAiwewJocuvEtXLufTjCZkBFZkRn405EIzHdBx+ganaN7wvZzBUdwBWd2j+dFISFjQRAuFquzmwGz092fBQIiON/xvpmFz74kJlQU/QyEz0X8Eyb8W+ebFCfRpQ1kRFZkRnZLR6IwnRI+ukbn6B4OCB9O+A5HcAVnxO/dK9otSFhCBKD+Y9sLRpRthZ0Jx7gF1Q5zU+x9EhOFcgzsC4eH7x9UI550AzJZupEVmZE9KhA2urW0o3N0DwcWN9zAEVzBGdwVV1cJlyyMS7CRjinBLBQB+J6Xt1e3kmDI3upUEzpRWBhz5nypuxjwtxenF3e6wS8bFzIjuz1LFIRhukXX6BzdwwH3zCgsLt6FOzgsTvwJZ2+25mLHpTDjxILr1q0nl112mTbrrE6NCuQirq++WqiObVkDMiO7pSMqoGN0jc7RPRzARRBwBndwWBwkxBwJZA83itIwy2QWWcuWJ+jSjeJYbrxAKdS5DCuYY1uWgMzIbn5L1EDn6B4O4CIInsMdHBbHWBOSEOeJzf5YehqWWARkkXpUA4VhoMnMlhZhykh3IDOyk4ZkAd3DQZh+4Azu4BAui0JCxsJcCRZEhS3pwFKZa8sscyw4GSULoP+G8ZAoWlepBjIjO2lIBkzvcGDznoOAOziEy6IQl7HgIDFibI4S+8yyfSi9klay2DMUwP4ozNICyTIWoiPOsloNIXu+yiKH6RwO4MKM0jiCM7iDQ7gEPPNz7EfcJYufFDYkZmETFstFBCbg9u1bpUuXLpHPdY0Fpm2WNaRCZnQPB3ABJ3YProw3OIRLQ6yMV+JqiCJ0zJh/OEEK71EPWJjF1lzsuGQIKwKjAAuuSFwqDDJqIDOye9vBRw+/zuECTmzRnAHu4BAui6rK466GSCAXe+HjnPn3STPCOCiB7bnYnQgBEDpZZHrKTt+Bw6KA7LFycqJA5+geDuACTuDGngG4g0O4hFPucwULABCXsZhRANrnAEGCAdM7afM9mbWVvJzvKYGlpMkJP7lAZmQnDaQlahA+ureVBd4a6MKGCXdWohinwM+1IS5jMdDUY5i9YsV9yzbMYHCOGjdu4q5G+neyQccTe8eF5YR0BzIje1Rze4oCnMANHAE/d3AJp3AbS5dxGwsBsYxy1ixvdaEFzCcX8yiYa8oZPKkAOaBFi+buW9kzFmRG9rBcnAzACdzAkfEF+IRLOIXbWIhbSixxw4YNsnLlt/rdEsqnV/fm6QJx/zyKZAIZ2CaLrUyT5UQnA8iKzMhOGlIBOIEbOIIrP3fIAKdwG0ueOI3Fq9tYWB7W64gCMFYmIaXCWPLyvFFWtjTt1KmTfiedlmPSEciGjMiKzMju6S35pQucwA3qIc4g4BRuY6FEErJ/CSeABYEi2AvfNvZNNjzFZwmHInTu3EU2b97k7sb25ksbJi8yIisyI3uq5IUTuIGjsPjg9EBTJuJmFItk2l5Ycw+vmrW9DRocnXKy6NJu0cJb8UfcqTDWeIFMyIaMyIrMqQRxc04Bi+rDShY4ZZlr2DMQt0YpqpghHlbNIEzVqlWkVq2aKSHLciSf7AfLni62GY+Xg9MLJhMyIisy+9OQbMAJB1pwAkqYQcAp3Ia5GCBORr21uyySCo+sgnrVXr9B8oGC/UbZtWtXadv2dFechi8UL20gE7IhI7IaSEOqjBtuuOAqCDiFWzgOQ9zZn2YXa07CEsdYByvvUuHchoGc+vOf/1wnJKdK+fEAmZANGW1n7FQDbuAobFwK+eA2bBkJiNtYmM9pXcZBEBnLQEpr3Q49lRdccIFzHC9wCU4/BxeZkA0ZkbU0ADdwFCszwS0chyFuY6H3jytWMc8JYGHObyqAAmrXru38gZudUrxmdboAWZAJ2ZAxFlnJBtzAURjg1PgNQ9zG4nyxAzpkNhZUGiCxyMY2Wuw4xURlM5jSIMfiRAZkQSZkQ8bS8qngJlaphrzIBsdhiNtYDGGtHSJjhV0qWkJh8JNz4oknyvPPPy9HHllX/zajSSUsXmRAFmQyOUrDeAHcwFFY/EXxVjqspgCQwigru0oxHkKOSTWIk7iRAVlKw2CjRImNJSzhKIc2emkpxZ9bkIXilkOrnnxysCt+s/TYlVSBuIiTuJEB2fwGW1olC9zAUVjmKYq3uI2FNAYT7seBnN9kA7koSrmom5EDg2nbtq0Ov19++cVO7r3uPt6+Jz+/SYS4wr/HF2H1316NiziJ23wEZDL5EokzEZgTGwY49dKTfyOAuI2FhHPFcmI599gczdKGnxB2mn7mmT/KwIEDdVsKFMamN5abkDcemf3vEwZhESZhEwdx2e7WoLSMww/khRs4CoM5v2bcQcRtLLTTK1cuvPmxAaWxnUOsdnppwO+0MSZCh9izzz4r/fv/Ruelsqcsh3ijSH+ON2MIXoB3eJe/+S1hEBZhEjZxEJfBL0NpA27gKFaVA7ex+sniTgXbddJdbIrzA8tkx0SWHKRDTvKThDxcyNi0aVO58cYb5eWXh8tf/jLUkft/2hm1fv1avbxezH2rFbj47mUGDv723uM3/JYwCIswCZs47HeGdDAY5IEbOAqrGUgj3MJxGOLczGevbN++y+Wgh+XVV1/Nv7cPFHFNmx6nBz1yynk6wEg347YiFln9CiPHsaPAggULZPHixTp5mZM4Nm/2Fl/VqFFdV/cdd1wTXXB+/PHH66kbhGdGYXEYiMOMBmNBFnvXPlMNTt/n4NKvv14SajBXXXWVPPxw//22zgdxG0tubpY88cSTepxJcAyIOpsTztm+89RT24QKk0xADoAYyPj++7V6Vs/ChV9pjqpTp66cfPJJjvCmrqgtr++ZIXEhL5/ekIbXYrDi2sKkj4Jimu/B+PibpRZsYPzFF7Nl3bq1qiOmI3BmEv0t/jBLQz+ffTZLt31lE+Wgb4KO2Kbj3nvv0TQFEbexuCTKiBEj9Nyg4ERjFEH9PXjw43peX1iEyYSRx+HakydPltde+4d88w1LVr53d/McyZWkUaOGTrauLgf9rKD/BaLt0w9ItTT4vxv4jYHfsu/u3//+qrz55nhZunSZMxxGb7N0Nhz793MIaIcOHfRvkGpjIQ30Ivfp0zd0mw3WOz/xxGA9NzoMJWKT5QsVKuyfUCJnz5HVq1cXUmSqQJyTJk1SB/POO++UmZ/Oko0bNknFCpXdVUWys7Jl6TfLnUKekM6dL5Thw0fo+UcgqDjgN47QnOZ+w0UYhNW580WuxH1avlmyzMVVTuMkbmRAFmRCNmQsLf3ADRyFpQdObblxGOI0Fs9AOHzJNs4LAxvr2braKEHJYRcJ5/KawLvkq6++UiKuvPIqV+0sVq++XHlXPXCOUJYjxl38yy7nLefksKzbbrtFNxu+7bY75O2339GDGdhVgBnuVEXEQ27k4jv3eMY7vMtv+K0Xxi0uzI0u7PIar8XJhQzcQyZkQ0ZkRWZkJw2WHn8aowacwA0griDgFG5jIe7dKomEMwW7dr1Mi1r+xkqtmEagdu3Okpde+kvkczZQoOVm4uOTyTpvvPGGDBv2snPaFuvwOzLxrChYOBS/1N9NmzaTBg3qacnZoAHreWhGevV6Ts4e3fGA/WuZg7xq1RqND6Kpjkl7GAFBmGw0X4nv+uuv1Q13OJfIdMknV9TVFEZ+ww03yvTpH2qGMc5Ml6wrGjv2DZ0aG6a/EhkLueGBBx5wvssrjhzvxDFTAoSi7FGjRuiR/1GCOCxhJJITSZ955mk9pInZXSjADKo4MJkJE2K80qRw76bNi+FIXD84gQNHl/iM4HjiJT4yFktHOTj0jjvu1MMakIXnhFnc8IqLRYsWSffuPdXYid9k5pPdM3v2vEYee+wx9TvD4o6zGvJyI8UV61127963daYFjhBLly7RUidq+A2F5i2Dc2+9NUH27smV8uU84sISGQu8y2WKq1C+olNUValUsapU1s8qUrXKYXrx3bvnLvfJu/yG31o4xQXvIqvK7GQnDaSFNJmRkNaoASdwg8yAeIw7uITTWCPSIC5j8SfgjDPO1E9TFrBcQfORs5u9795YEd9LCsIlDOIiPDb7pVXB0gXdgYDo8Q1iJPJAQC6TzZVb7n93Zbl06CdeTuHvPOMd793Cv48HKqv6NOgwW9NCmkgbaQSkORGjQS7CMJ8ITuCG7xYucpjxGKcgLN64qiG/UgiMI2F37tytRTQ5gnt8IlDlyhXlyy9na48g4Lc8iwcWHp/8noutxAcMeFiXLMTqaSyrYO4rS0wHDOjvWladlUguv27jAb+xDETP84knnqR8sTjer1uqWvjikCt/HPZbQ3yx+4A1duv2M1d87SwI1D4Rhi0cZs6cqX+DeBMKLDH2HUPp33+Arls62AwFcGoIzXDSyEFWprOSGArw/wYu4MR2UfBzBodwaSVMLMQtAcWa4ZxzznGRe1uEcRGxlT5Vq1ZzReq/1Inzl0jxwIphwv7666+ld+/eqkxaLiUNM92B00wae/X6paaZtKMDv97jAXqCA7iAE7sHV8YbHMKlIVZccRkLEfjHQtq0+bG0bt1KWxFWAtgzWibsTW/LIRMhd+HCRa7F0MWF7Q2hE5fFczCBNJE2rxs+W9NM2ksK0zkcwAWcANMdccEdHMIl4JmfYz/iL9t84BBM9lllT7IgsFias5Mnf6BClcRYEJi+Aeavcmw+YR4qIK2kmbSjgzDyigI6R/dwABdh+oM7OITLopCQ9umM4kABOt8QKgjq4Pfemyjr12/IvxMfKA45BBIvPtjPcSiANJN2dFDSagjdw0HwZDcAZ3AHh8XZUCghY8FSW7c+SccTwkoOBOQQakZ+S1KyMDA3YsRw58F7p4oeiiDt6ABdxAt0ju7hIMxYeA53cFicUjshYwEcoU/7PKyUJGesXbtGu+PpUgfkkKIMB4unb2Dw4CddQhdoQkpSDJd1kGbSjg7QBToJK8H9QLdWCqFzdA8HYSUzKoU7OCwOEjIWBKNrmIO8LRFmCCSU7zilHARO76T/vr3nB/csnI8//kSHDPyHXR1qsHSjA3SBTgA6CtOHvW8ZC52j++xs7xhCu2+/JRy4g8Ow8IJIuGRBAGaMnXtuBx1fwIKJGEF4RlOQfhEmSwG/oLHAiPCjjz6qG91YOJbQQwmWbnSALtAJuokF06npGJ2je/pWLByewRFcwRncFVe3CZcsXCSkV69ezuPmvGDvvl84nKe33npTDxSwKiWsA8iEnjZtmnz++X9cU88bp7B4DjVYutEBukAn6AaYrvxAp9xHx+ganTPWQxiW6bwwOZR8h3IGdxZPUUjIWIx4rrPPPttd7WTr1i0F9+w5gnDMGj2TdDjxd5h3T4I4cOCNN8a63LBvyiZhHKrwpx2doBt0ZKWIH+YPWi8wOgfGhX2nk659e/g6W//2Pz8QEq6G/Ljvvr46F4KEBBNDh9C8eXN1qiPChgnHPYbRFyyY7/469EqSopGnukFHsfSHbtExurZOOIOVIOzOde+9ffLvFh+RGgv1HwNgdPT4c4SB8ZzRo1+VOXPmqNBB0Js4Y8YMWblylft9pKIdFEAn6AYdoasg0Cm6RcdhY2dwAjcc+tCmTZv8u8VHpIwwwnzFFZdL3bp1QotJLJ/5FH/9618LmtJ+MGXxww8/1NwRZmyHOtAJukFHYZsbo1N0i47DSh44qVPnCOUIXyVeRGosWPbpp5+uOxux3heQQCMeL7xSpcoycuQoZ/2j9X2rZ0nIsmXLXDG7UJ2yDMKBbtARukJnfh2iU3SLjq1fxa9/OIEbOOL9eBGpsSAULZ8ePXrIUUc10ET4SxiTj7mtgwY9JrNnzy7IAXzOnv2lDnpZ4jLYH+gGHaGrwrqbrTpFt8BvC3AAF3ACN3BUEh1HaixmGCyo6tu3r05KBlZymDUzqslknHvuuUdXANr98ePHu1zBAq59YWWwD+gE3aAjdAXQHTpEl+jUG7HeX+dwASdwA0qi30iNBSAcVtu166W6faftSwu4b8KzYyITrpkgzH7xCM96mgoVmNuqr2QQAnSDjtAVOkN36BBdolPvnX29tQAO4AJO/BzEi0iNhU4hikQuem4HDvyttpDw3K3IBCYsKwQnTpwoTz/9jHz66cyCaQh2ZVAYft2gK3SG7iZOJJPtMxSD916OcgAXcGK/L2pWXBjK9evXb0D+98hB3ci4w4wZH6nQYfUkaWMR+uLFS+Tbb1do34BX3MZfpx4KsOoDH2TVqtUyZcpU10IqnBkNGA4t1LvvvlO3BCmJgfgR97qheICwHHD9xz/+SZ577tlCvbIGjIINfGn/Y/kZIyke0C3NaKokVgegt6AfwlrrW265VW6//TZtKieq26SW9QiHZTN39qyz2kmsPd1o5tlUPn8xmkE40BG6otS2JnLQUNA1Okf3cJCooYCkliwUlVY8MlraocN5Om5hB1JHkYAM9gEjQt9Moaxfv55MnjypYKsy9J1oNZT0koUEcCH0iy+yyU/zAkc2g2iBTtEtOkbX6Nz0H0XGTCpjCO8XkuWRDz30oG74Y6vuMogO6BTdomN0bYgqYya1GgIUfwhrnySIScjsYc96lQyiA42EIUOezz+S11syE5WhgKQbix/4MIAE0Ddw3XU93XevxzHjv5QMVDEgN3ePbijUseN5aiQgUR8liJQ6DghvfgzbTLAmpl69IwuMKIP4ge7QIbpEp+afRG0oIKUlCxZvieGT6/33J8ugQYN0RyTbOCeD4oENhlq0aCYPPvigzqdFr6ZbPqOsgkDKqyESAfjEeLjYtvyGG34py5atcB78vs2GM4gN+lEaNfofeemlF9WZxTC4MBTAZ9SlS0qNJQi/8bBEk/1Zp0+bruMc3HZljz6zUijqnJLuICOhn4IM5v6hB5rH7X7aTvcbtq3YkmEcQZSqsZgjBlDIhg0b5YUXXpARI0bqpGR6KP0GdajCDIHt2ViT3LNnD+2ZrV37cH1mSHZmKnVjIYGWg0g4czJoWg8f/rLMmjVLqlb1NgOy54cS/GlmmgHzZq+99lrXNO6iXfhW7ZgOD2pjMZBQSzSf/M1+rf36/Von+ZjBJFsZ6Qb0ADCUSy65RKcZ2Gn8GJJlslTpJS2MJRaY1sAOAoMH/163D2d2u81adzpyhqVfDxo42vUTX42tu/LycnSL1T59+uhWsmFnMacSaW0s5Bx8Fg4nGDZsuLz77r9l3br1rv729t03kLvKMvzVq5fmPToLv1OnTlrtcKhErA12Uom0NhaGBnDsUCZLH9gX7fXX/ykTJkyQrVu3qQNsRTGXX+llASYzF8aPA8u+wqy9YrkGE5Y4nYP3SGeyWztFIa2NhVLFFGRGwWQq+mUef/xx3SGAZQ/sqs3zsubTmMxMpuYktPbt2+ukavpNbA0yabZ3M8aSAKZOnSpDhw7VXmA1lLxywkJGFKx9Evl71fphRmckRA1/SREEPgn+iL6DaFneUhl6X1mkztrjdEaZNRYjnZKGQ6UmTnxPPvrIW/rKqRc4wzaf18jjE/A7vkdtMBamPx6Tk/iZBpnnrKR69RpyzDENdCMd9kehSUz/icmZrijTJYuRAqjvly9fIXPmzNbtJubOnee+z9Vh+8qVqxT4PnZBYDKMxR82F1Xpzp0cJFFBd4Vksz/2cGNrLnZc8u8gGbU8UaNMG4v17pIbycH26dKkPcCzZn0uU6ZMcU7xGFmzZrX7hbfPiR1OkQxgLGyUw0bE7i+pV6++c1a76T6zbB9KCcKqh6DM6VyiGMq0sRQXGBXLTT7++CPdZQBfZ+1aDsTcKd7+/ziOzpB0gRvV1r4qxY99pQYlgatWcjhTyVtrzMFOrEOuW7eu+h4c2du27Rl6pmJpO6ZR4aA2FvMXDHzHQGiGM6zAPiccp8JWWmvXrhMOl/rhh83une3abPeqFfut93v6OzhkqmbNGlKr1uG6YwTzSTg2hyNz6IanuWs7Lhn4XhZKjwPhkDEWvpvfArhvxT/38HlwQOk15vKMxSPZ3icojIX1TVz4G/T1BMOy9ylxzEAyxlIGYOSZsRj4m2dRVRF+/8ngNxaelW2I/D+4EFxdA/AXHgAAAABJRU5ErkJggg==;" vertex="1" parent="WIyWlLk6GJQsqaUBKTNV-1">
          <mxGeometry x="55.5" y="600" width="59" height="56.03" as="geometry" />
        </mxCell>
      </root>
    </mxGraphModel>
  </diagram>
</mxfile>
